<svg width="24" height="24" xmlns="http://www.w3.org/2000/svg">
  <g fill="none" fill-rule="evenodd">
    <path d="M0 0h24v24H0z"/>
    <path d="M12.75 2v.003h7.5c.967 0 1.75.98 1.75 2.187v15.622C22 21.02 21.216 22 20.25 22h-9v-.003h-7.5c-.966 0-1.75-.98-1.75-2.187V4.188C2 2.978 2.784 2 3.75 2h9Zm7.5 1.878h-7.5v16.247h7.5c.138 0 .25-.14.25-.313V4.192c0-.173-.112-.313-.25-.313v-.001Zm-9-.003h-7.5c-.138 0-.25.14-.25.313V19.81c0 .172.112.312.25.312h7.5V3.875Zm7.504 1.25c.415 0 .75.42.75.937 0 .518-.335.938-.75.938h-4.503c-.414 0-.75-.42-.75-.938s.336-.938.75-.938h4.503Z" fill="#000" fill-rule="nonzero"/>
  </g>
</svg>
