<svg width="24" height="24" xmlns="http://www.w3.org/2000/svg">
  <g fill="none" fill-rule="evenodd">
    <path d="M0 0h24v24H0z"/>
    <path d="m19.5 6-1.058 1.058L20.378 9H12a4.475 4.475 0 0 0-3 1.155V5.123l1.943 1.934L12 6 8.25 2.25 4.5 6l1.058 1.058L7.5 5.122V13.5c0 1.109.412 2.177 1.155 3H3.623l1.934-1.943L4.5 13.5.75 17.25 4.5 21l1.058-1.058L3.623 18H12a4.492 4.492 0 0 0 3.345-7.5h5.033l-1.936 1.943L19.5 13.5l3.75-3.75L19.5 6ZM15 13.5a3 3 0 1 1-6 0 3 3 0 0 1 6 0Z" fill="#000" fill-rule="nonzero"/>
  </g>
</svg>
