<svg width="24" height="24" xmlns="http://www.w3.org/2000/svg">
  <g fill="none" fill-rule="evenodd">
    <path d="M0 0h24v24H0z"/>
    <path d="m22.695 18.946-5.242-14.5c-.187-.516-.593-.846-1.04-.846h-3.66l.092 1.05c.02.213-.12.4-.298.4h-1.094c-.178 0-.317-.187-.298-.4l.092-1.05h-3.66c-.447 0-.853.33-1.04.846l-5.242 14.5c-.347.96.207 2.054 1.04 2.054h7.382l.386-4.426c.033-.369.29-.649.597-.649h2.58c.307 0 .564.28.597.649L14.273 21h7.382c.833 0 1.387-1.094 1.04-2.054ZM10.965 6.824c.016-.184.145-.324.299-.324h1.473c.153 0 .282.14.298.324l.173 1.975c.028.321-.18.601-.447.601h-1.52c-.268 0-.476-.28-.448-.6l.172-1.976Zm2.072 7.651h-2.074c-.356 0-.634-.373-.596-.801l.19-2.175c.032-.369.29-.649.596-.649h1.693c.308 0 .565.28.597.649l.19 2.175c.038.428-.24.801-.596.801Z" fill="#000" fill-rule="nonzero"/>
    <g transform="translate(13.2 4.8)">
      <circle stroke="#000" stroke-width=".5" fill="#FFF" cx="4.8" cy="4.8" r="4.8"/>
      <path d="M5.26 4.174V3.16c.374.12.709.24.982.351a.101.101 0 0 0 .123-.037l.551-.822a.1.1 0 0 0 .014-.079.1.1 0 0 0-.05-.064c-.315-.166-.958-.424-1.62-.589v-.595a.124.124 0 0 0-.125-.124H4.13a.124.124 0 0 0-.126.124v.443c-.931.042-1.563.362-1.926.978-.286.482-.284 1.027.001 1.42.299.42.786.607 1.402.843l.08.03c.143.054.293.109.443.163v1.237c-.652-.153-1.265-.466-1.378-.541a.102.102 0 0 0-.137.021l-.668.858a.098.098 0 0 0 .02.14c.404.295.992.577 1.574.754.138.042.344.097.59.144v.463c0 .068.056.123.125.123h1.005a.124.124 0 0 0 .125-.123v-.385c.892-.072 1.558-.454 1.94-1.115.366-.639.226-1.302-.389-1.822-.388-.302-.992-.568-1.55-.78Zm-1.256-1.19v.75c-.289-.092-.46-.18-.441-.398.018-.223.236-.314.441-.351ZM5.26 5.662c.212.093.373.191.43.314.03.069.028.148-.008.243-.065.165-.232.251-.422.295v-.852Z" fill="#000" fill-rule="nonzero"/>
    </g>
  </g>
</svg>
