<svg width="24" height="24" xmlns="http://www.w3.org/2000/svg">
  <g fill="none" fill-rule="evenodd">
    <path d="M0 0h24v24H0z"/>
    <path d="M14.844 20H6.5A2.502 2.502 0 0 1 4 17.5C4 16.121 5.121 15 6.5 15h7c1.93 0 3.5-1.57 3.5-3.5S15.43 8 13.5 8H8.639a9.812 9.812 0 0 1-1.354 2H13.5c.827 0 1.5.673 1.5 1.5s-.673 1.5-1.5 1.5h-7A4.505 4.505 0 0 0 2 17.5C2 19.981 4.019 22 6.5 22h9.593c-.49-.617-.91-1.288-1.249-2ZM5 2C3.346 2 2 3.346 2 5c0 3.188 3 5 3 5s3-1.813 3-5c0-1.654-1.346-3-3-3Zm0 4.5a1.5 1.5 0 1 1 .001-3.001A1.5 1.5 0 0 1 5 6.5Z" fill="#000" fill-rule="nonzero"/>
    <path d="M19 14c-1.654 0-3 1.346-3 3 0 3.188 3 5 3 5s3-1.813 3-5c0-1.654-1.346-3-3-3Zm0 4.5a1.5 1.5 0 1 1 .001-3.001A1.5 1.5 0 0 1 19 18.5Z" fill="#000" fill-rule="nonzero"/>
  </g>
</svg>
