<?xml version="1.0" encoding="UTF-8"?>
<svg width="40px" height="40px" viewBox="0 0 40 40" version="1.1" xmlns="http://www.w3.org/2000/svg" xmlns:xlink="http://www.w3.org/1999/xlink">
    <title>i-cellphone-lock</title>
    <g id="Customer-Alert-App" stroke="none" stroke-width="1" fill="none" fill-rule="evenodd">
        <g id="Icons" transform="translate(-574.000000, -212.000000)">
            <g id="i-cellphone-lock" transform="translate(574.000000, 212.000000)">
                <rect id="ViewBox" x="0" y="0" width="40" height="40"></rect>
                <path d="M28.3333333,1.66666667 L11.6666667,1.66666667 C9.8257175,1.66666667 8.33333333,3.15905083 8.33333333,5 L8.33333333,10 L11.6666667,10 L11.6666667,6.66666667 L28.3333333,6.66666667 L28.3333333,33.3333333 L11.6666667,33.3333333 L11.6666667,30 L8.33333333,30 L8.33333333,35 C8.33333333,36.8409492 9.8257175,38.3333333 11.6666667,38.3333333 L28.3333333,38.3333333 C30.1742825,38.3333333 31.6666667,36.8409492 31.6666667,35 L31.6666667,5 C31.6666667,3.15905083 30.1742825,1.66666667 28.3333333,1.66666667 M14.6666667,18.3333333 L14.6666667,15.8333333 C14.6666667,13.5 12.3333333,11.6666667 10,11.6666667 C7.66666667,11.6666667 5.33333333,13.5 5.33333333,15.8333333 L5.33333333,18.3333333 C4.33333333,18.3333333 3.33333333,19.3333333 3.33333333,20.3333333 L3.33333333,26.1666667 C3.33333333,27.3333333 4.33333333,28.3333333 5.33333333,28.3333333 L14.5,28.3333333 C15.6666667,28.3333333 16.6666667,27.3333333 16.6666667,26.3333333 L16.6666667,20.5 C16.6666667,19.3333333 15.6666667,18.3333333 14.6666667,18.3333333 M12.5,18.3333333 L7.5,18.3333333 L7.5,15.8333333 C7.5,14.5 8.66666667,13.6666667 10,13.6666667 C11.3333333,13.6666667 12.5,14.5 12.5,15.8333333 L12.5,18.3333333 Z" id="Shape" fill="#000000" fill-rule="nonzero"></path>
            </g>
        </g>
    </g>
</svg>