<?xml version="1.0" encoding="UTF-8"?>
<svg width="40px" height="40px" viewBox="0 0 40 40" version="1.1" xmlns="http://www.w3.org/2000/svg" xmlns:xlink="http://www.w3.org/1999/xlink">
    <title>i-cellphone-key</title>
    <g id="Customer-Alert-App" stroke="none" stroke-width="1" fill="none" fill-rule="evenodd">
        <g id="Icons" transform="translate(-574.000000, -128.000000)">
            <g id="i-cellphone-key" transform="translate(574.000000, 128.000000)">
                <rect id="ViewBox" x="0" y="0" width="40" height="40"></rect>
                <path d="M11.6666667,1.66666667 C9.83333333,1.66666667 8.33333333,3.16666667 8.33333333,5 L8.33333333,11.6666667 L11.6666667,11.6666667 L11.6666667,6.66666667 L28.3333333,6.66666667 L28.3333333,33.3333333 L11.6666667,33.3333333 L11.6666667,28.3333333 L8.33333333,28.3333333 L8.33333333,35 C8.33333333,36.8333333 9.83333333,38.3333333 11.6666667,38.3333333 L28.3333333,38.3333333 C30.1666667,38.3333333 31.6666667,36.8333333 31.6666667,35 L31.6666667,5 C31.6666667,3.16666667 30.1666667,1.66666667 28.3333333,1.66666667 L11.6666667,1.66666667 M10,15 C7.16666667,15 5,17.1666667 5,20 C5,22.8333333 7.16666667,25 10,25 C12.1666667,25 14,23.6666667 14.6666667,21.6666667 L18.3333333,21.6666667 L18.3333333,25 L21.6666667,25 L21.6666667,21.6666667 L25,21.6666667 L25,18.3333333 L14.6666667,18.3333333 C14,16.3333333 12.1666667,15 10,15 M10,18.3333333 C11,18.3333333 11.6666667,19 11.6666667,20 C11.6666667,21 11,21.6666667 10,21.6666667 C9,21.6666667 8.33333333,21 8.33333333,20 C8.33333333,19 9,18.3333333 10,18.3333333 Z" id="Shape" fill="#000000" fill-rule="nonzero"></path>
            </g>
        </g>
    </g>
</svg>