<?xml version="1.0" encoding="UTF-8"?>
<svg width="40px" height="40px" viewBox="0 0 40 40" version="1.1" xmlns="http://www.w3.org/2000/svg" xmlns:xlink="http://www.w3.org/1999/xlink">
    <title>i-check</title>
    <g id="Customer-Alert-App" stroke="none" stroke-width="1" fill="none" fill-rule="evenodd">
        <g id="Icons" transform="translate(-574.000000, -445.000000)">
            <g id="i-check" transform="translate(574.000000, 445.000000)">
                <rect id="ViewBox" x="0" y="0" width="40" height="40"></rect>
                <path d="M32.8488433,9.91189002 C33.8324864,10.8713563 33.8526747,12.4414383 32.8940235,13.4256441 L19.5699027,30.0040255 C19.1074119,30.4996334 18.4623455,30.7867961 17.7828669,30.799556 C17.1033883,30.812316 16.4478972,30.5495765 15.9669516,30.0716855 L7.13292355,21.2826568 C6.1553604,20.3092318 6.15574084,18.7313767 7.13377331,17.7584187 C8.11180577,16.7854608 9.69712925,16.7858394 10.6746924,17.7592645 L17.6613583,24.7147083 L29.2519838,10.0155822 C29.2730415,9.98883571 29.2957452,9.96341446 29.319964,9.93946471 C30.2876002,8.96398932 31.8652001,8.9524237 32.8488433,9.91189002 Z" id="Path" fill="#000000" fill-rule="nonzero"></path>
            </g>
        </g>
    </g>
</svg>