<?xml version="1.0" encoding="UTF-8"?>
<svg width="16px" height="16px" viewBox="0 0 16 16" version="1.1" xmlns="http://www.w3.org/2000/svg" xmlns:xlink="http://www.w3.org/1999/xlink">
    <title>i-opyright</title>
    <g id="Customer-Alert-App" stroke="none" stroke-width="1" fill="none" fill-rule="evenodd">
        <g id="Icons" transform="translate(-754.000000, -260.000000)">
            <g id="i-opyright" transform="translate(754.000000, 260.000000)">
                <rect id="ViewBox" x="0" y="0" width="16" height="16"></rect>
                <path d="M8,1.625 C4.47918472,1.625 1.625,4.47918472 1.625,8 C1.625,11.5208153 4.47918472,14.375 8,14.375 C11.5208153,14.375 14.375,11.5208153 14.375,8 C14.3681222,4.48203752 11.5179625,1.63187776 8,1.625 Z M8,13.625 C4.89339828,13.625 2.375,11.1066017 2.375,8 C2.375,4.89339828 4.89339828,2.375 8,2.375 C11.1066017,2.375 13.625,4.89339828 13.625,8 C13.6215555,11.1051739 11.1051739,13.6215555 8,13.625 Z M5.875,8 C5.875,8.91466462 6.46028895,9.72670966 7.328016,10.015952 C8.19574304,10.3051944 9.15120123,10.0067317 9.7,9.275 C9.82426407,9.10931459 10.0593146,9.07573596 10.225,9.20000002 C10.3906854,9.32426408 10.4242641,9.55931457 10.3,9.725 C9.55750755,10.7149899 8.26482882,11.1187924 7.09084517,10.7274645 C5.91686152,10.3361366 5.125,9.23748742 5.125,8 C5.125,6.76251258 5.91686152,5.6638634 7.09084517,5.27253552 C8.26482882,4.88120763 9.55750755,5.28501006 10.3,6.275 C10.3596737,6.35456495 10.3852963,6.45457641 10.3712311,6.55303301 C10.3571658,6.65148961 10.3045649,6.74032629 10.225,6.8 C10.1454351,6.85967371 10.0454236,6.88529629 9.94696699,6.87123106 C9.84851039,6.85716583 9.75967371,6.80456495 9.7,6.725 C9.15120123,5.99326831 8.19574304,5.69480564 7.328016,5.98404799 C6.46028895,6.27329034 5.875,7.08533538 5.875,8 Z" id="Shape" fill="#000000" fill-rule="nonzero"></path>
            </g>
        </g>
    </g>
</svg>