<?xml version="1.0" encoding="UTF-8"?>
<svg width="60px" height="22px" viewBox="0 0 60 22" version="1.1" xmlns="http://www.w3.org/2000/svg" xmlns:xlink="http://www.w3.org/1999/xlink">
    <title>i-NFI-logo_web-22</title>
    <g id="Customer-Alert-App" stroke="none" stroke-width="1" fill="none" fill-rule="evenodd">
        <g id="Icons" transform="translate(-750.000000, -202.000000)">
            <g id="i-NFI-logo_web-22" transform="translate(750.000000, 202.000000)">
                <g id="Group" transform="translate(5.895852, 9.057799)" fill="#075895" fill-rule="nonzero">
                    <polygon id="Path" points="0 0 3.82030774 0 6.00485323 3.10331123 6.02602815 3.10331123 6.02602815 0 9.60282436 0 9.60282436 7.43610492 6.24836477 7.43610492 3.5997357 4.06286482 3.57856079 4.06286482 3.57856079 7.4378464 0 7.4378464"></polygon>
                    <polygon id="Path" points="11.1032657 0 19.4880847 0 19.4880847 2.55300464 14.9151891 2.55300464 14.9151891 3.3140299 19.4880847 3.3140299 19.4880847 5.58317386 14.9151891 5.58317386 14.9151891 7.4378464 11.1032657 7.4378464 11.1032657 0"></polygon>
                    <polygon id="Path" points="20.917917 0 24.7308032 0 24.7308032 7.4378464 20.917917 7.4378464"></polygon>
                </g>
                <path d="M46.1606355,12.2561667 C20.7167088,30.850277 -11.5250923,18.4030952 4.10772408,11.2003167 C-4.85960959,20.8109907 26.0759263,26.3411355 44.3106816,12.6569018 C44.9585185,12.3554793 45.6840252,12.2282894 46.1606355,12.2561667 Z" id="Path" fill="#C8142E"></path>
                <path d="M18.0448244,7.05463183 C14.8936845,5.67645425 10.990508,5.87159444 7.78464254,6.97971194 C20.7687508,-2.27376611 46.8834909,-2.33648974 60,6.85252235 C47.9974232,1.7074422 28.7251581,-0.500081182 18.0448244,7.05463183 L18.0448244,7.05463183 Z" id="Path" fill="#C8142E"></path>
                <g id="Group" transform="translate(31.897617, 9.022961)" fill-rule="nonzero">
                    <path d="M0,0.940617577 L0,3.51268475 C0,3.51268475 0.415876088,4.23488222 1.02383054,4.61599367 L1.02383054,1.92733076 C1.02383054,1.92733076 0.324242374,1.73590492 0,0.940617577 Z" id="Path" fill="#075895"></path>
                    <path d="M5.31332745,2.00490895 L5.31332745,4.75534442 C5.31332745,4.75534442 5.98474021,4.36864608 6.35481024,3.54996041 L6.35481024,1.04513064 C6.353048,1.04513064 6.09752346,1.74536817 5.31332745,2.00490895 Z" id="Path" fill="#075895"></path>
                    <path d="M1.30626655,2.09026128 L1.30626655,4.82669726 C1.30626655,4.82669726 1.47909479,5.11951334 2.55309884,5.23977709 L2.66772981,4.18354766 L3.51247192,5.30078044 C3.51247192,5.30078044 3.84225641,5.41930123 5.03089144,4.910359 L5.03089144,2.13906396 C5.03089144,2.13906396 4.74519578,2.43885185 3.66237396,2.42665118 L3.53892522,3.49508128 L2.66772981,2.42490823 C2.66772981,2.42490823 2.19509749,2.45976729 1.30626655,2.09026128 Z" id="Path" fill="#C8142E"></path>
                    <path d="M1.83365143,5.31167637 L1.3592233,7.26365796 L3.00378945,6.57513446 L4.46601942,7.26365796 L4.18808951,5.42177022 C4.18808951,5.42177022 3.77030952,5.52836904 3.40032639,5.45672066 L2.79666971,4.56373713 L2.71523802,5.46895331 C2.71523802,5.46720578 2.55768539,5.53885417 1.83365143,5.31167637 Z" id="Path" fill="#075895"></path>
                    <path d="M3.57580479,0.375903663 C3.55104586,0.299301636 3.43432515,0.0433812278 3.12837541,0.00682116955 C2.82242567,-0.0297388887 2.74461187,0.0886460619 2.71101045,0.172211909 C2.67740903,0.255777757 2.61551169,0.23314534 2.56245682,0.231404385 C2.51293894,0.229663429 2.21229469,0.219217699 2.21229469,0.219217699 C2.17338779,0.219217699 2.13801788,0.274928264 2.10795345,0.35153029 L1.95939982,0.809401496 C1.95939982,0.809401496 2.09734248,0.7432452 2.1309439,0.748468066 C2.33255239,0.785028124 2.66679806,0.816365317 2.64203912,0.943455043 C2.62081717,1.06880381 2.41920868,2.06985303 2.41920868,2.06985303 L2.61551169,2.0942264 C2.6897885,2.10641309 2.73930638,2.18823798 2.73930638,2.18823798 L3.35297435,2.99604117 C3.35297435,2.99604117 3.40602922,2.28399051 3.39718674,2.23698472 C3.39011276,2.18997893 3.46969506,2.16560556 3.46969506,2.16560556 L3.84815312,2.13078646 C3.85169011,2.13078646 3.60410072,0.473397151 3.57580479,0.375903663 Z M2.98930467,0.452889945 C2.90249061,0.452889945 2.82110243,0.393890634 2.80844205,0.323091462 C2.79578166,0.250606595 2.8536577,0.191607284 2.94228039,0.191607284 C3.02909445,0.191607284 3.11048262,0.250606595 3.12314301,0.323091462 C3.13399477,0.393890634 3.07611873,0.452889945 2.98930467,0.452889945 Z" id="Shape" fill="#075895"></path>
                </g>
            </g>
        </g>
    </g>
</svg>