<?xml version="1.0" encoding="UTF-8"?>
<svg width="109px" height="40px" viewBox="0 0 109 40" version="1.1" xmlns="http://www.w3.org/2000/svg" xmlns:xlink="http://www.w3.org/1999/xlink">
    <title>i-NFI-logo_web-40</title>
    <g id="Customer-Alert-App" stroke="none" stroke-width="1" fill="none" fill-rule="evenodd">
        <g id="Icons" transform="translate(-737.000000, -127.000000)">
            <g id="i-NFI-logo_web-40" transform="translate(737.000000, 127.000000)">
                <g id="Group" transform="translate(10.710797, 16.468725)" fill="#075895" fill-rule="nonzero">
                    <polygon id="Path" points="0 0 6.94022573 0 10.9088167 5.64238406 10.9472845 5.64238406 10.9472845 0 17.4451309 0 17.4451309 13.5201908 11.351196 13.5201908 6.53951986 7.38702695 6.5010521 7.38702695 6.5010521 13.5233571 0 13.5233571"></polygon>
                    <polygon id="Path" points="20.1709326 0 35.4033539 0 35.4033539 4.64182662 27.0959269 4.64182662 27.0959269 6.02550891 35.4033539 6.02550891 35.4033539 10.1512252 27.0959269 10.1512252 27.0959269 13.5233571 20.1709326 13.5233571 20.1709326 0"></polygon>
                    <polygon id="Path" points="38.0008826 0 44.9276258 0 44.9276258 13.5233571 38.0008826 13.5233571"></polygon>
                </g>
                <path d="M83.8584878,22.2839394 C37.6353543,56.0914127 -20.9372509,33.4601731 7.46236541,20.3642122 C-8.82829075,37.8381648 47.3712662,47.8929737 80.4977383,23.0125487 C81.674642,22.4645078 82.9926458,22.2332535 83.8584878,22.2839394 Z" id="Path" fill="#C8142E"></path>
                <path d="M32.7814309,12.8266033 C27.0568603,10.3208259 19.9660896,10.6756262 14.1421006,12.6903853 C37.7298973,-4.1341202 85.1716752,-4.24816317 109,12.4591315 C87.1953189,3.10444036 52.1840373,-0.909238513 32.7814309,12.8266033 L32.7814309,12.8266033 Z" id="Path" fill="#C8142E"></path>
                <g id="Group" transform="translate(57.947337, 16.405384)" fill-rule="nonzero">
                    <path d="M0,1.71021378 L0,6.38669954 C0,6.38669954 0.755508226,7.69978586 1.85995881,8.39271576 L1.85995881,3.50423775 C1.85995881,3.50423775 0.589040312,3.15619077 0,1.71021378 Z" id="Path" fill="#075895"></path>
                    <path d="M9.65254487,3.64528899 L9.65254487,8.64608076 C9.65254487,8.64608076 10.8722781,7.94299287 11.5445719,6.45447348 L11.5445719,1.90023753 C11.5413705,1.90023753 11.0771676,3.17339667 9.65254487,3.64528899 Z" id="Path" fill="#075895"></path>
                    <path d="M2.3730509,3.80047506 L2.3730509,8.77581321 C2.3730509,8.77581321 2.6870222,9.30820608 4.63812956,9.52686744 L4.84637583,7.60645029 L6.38099065,9.63778262 C6.38099065,9.63778262 6.98009915,9.85327497 9.13945278,8.92792545 L9.13945278,3.8892072 C9.13945278,3.8892072 8.620439,4.4342761 6.65331269,4.41209306 L6.42904748,6.35469324 L4.84637583,4.40892406 C4.84637583,4.40892406 3.98776044,4.47230416 2.3730509,3.80047506 Z" id="Path" fill="#C8142E"></path>
                    <path d="M3.33113342,9.65759339 L2.46925566,13.2066508 L5.45688417,11.9547899 L8.11326861,13.2066508 L7.60836261,9.85776404 C7.60836261,9.85776404 6.84939562,10.0515801 6.17725961,9.92131028 L5.08061664,8.29770388 L4.9326824,9.94355147 C4.9326824,9.94037415 4.6464618,10.0706439 3.33113342,9.65759339 Z" id="Path" fill="#075895"></path>
                    <path d="M6.49604538,0.683461205 C6.45106664,0.544184792 6.23902402,0.0788749597 5.68321533,0.0124021264 C5.12740664,-0.0540707068 4.98604489,0.161174658 4.92500232,0.313112562 C4.86395974,0.465050467 4.7515129,0.423900618 4.65512989,0.420735245 C4.56517241,0.417569872 4.01900203,0.398577634 4.01900203,0.398577634 C3.94832115,0.398577634 3.88406581,0.49986957 3.82944877,0.639145982 L3.55957635,1.47163908 C3.55957635,1.47163908 3.81017217,1.35135491 3.87121474,1.36085103 C4.23747018,1.42732386 4.84468314,1.48430058 4.7997044,1.71537281 C4.7611512,1.94327966 4.39489576,3.76336914 4.39489576,3.76336914 L4.7515129,3.80768437 C4.88644911,3.82984198 4.97640659,3.97861451 4.97640659,3.97861451 L6.09123674,5.44734759 C6.09123674,5.44734759 6.18761975,4.15271002 6.17155591,4.06724495 C6.15870484,3.98177988 6.30327936,3.93746466 6.30327936,3.93746466 L6.99081149,3.8741572 C6.99723703,3.8741572 6.54744965,0.860722093 6.49604538,0.683461205 Z M5.43057015,0.823436263 C5.27285794,0.823436263 5.12500275,0.716164789 5.10200305,0.587439021 C5.07900336,0.455648354 5.18414483,0.34837688 5.3451427,0.34837688 C5.50285491,0.34837688 5.6507101,0.455648354 5.6737098,0.587439021 C5.69342382,0.716164789 5.58828235,0.823436263 5.43057015,0.823436263 Z" id="Shape" fill="#075895"></path>
                </g>
            </g>
        </g>
    </g>
</svg>