<?xml version="1.0" encoding="UTF-8"?>
<svg width="24px" height="24px" viewBox="0 0 24 24" version="1.1" xmlns="http://www.w3.org/2000/svg" xmlns:xlink="http://www.w3.org/1999/xlink">
    <title>i-solid-phone</title>
    <g id="Customer-Alert-App" stroke="none" stroke-width="1" fill="none" fill-rule="evenodd">
        <g id="Icons" transform="translate(-582.000000, -375.000000)">
            <g id="i-solid-phone" transform="translate(582.000000, 375.000000)">
                <rect id="ViewBox" x="2.87036528e-08" y="0" width="24" height="23.9999998"></rect>
                <path d="M23.3151563,16.9593748 L18.0651563,14.7093749 C17.6044339,14.5130255 17.0693936,14.6448747 16.7526563,15.0328124 L14.4276563,17.8734373 C10.7787851,16.1530299 7.84228245,13.2165273 6.12187502,9.56765616 L8.96250002,7.24265618 C9.35127897,6.92645142 9.48327931,6.39079785 9.28593752,5.93015619 L7.03593752,0.680156243 C6.81847552,0.181587211 6.27727739,-0.0919638397 5.74687502,0.0285937497 L0.871875028,1.15359374 C0.361411579,1.27147051 0,1.72610319 0,2.24999998 C0,14.2734374 9.74531252,24 21.75,24 C22.2740721,24.0003358 22.7289589,23.6387591 22.846875,23.1281248 L23.971875,18.2531248 C24.0916487,17.7201761 23.8160607,17.1772619 23.3151563,16.9593748 L23.3151563,16.9593748 Z" id="Path" fill="#000000" fill-rule="nonzero"></path>
            </g>
        </g>
    </g>
</svg>