<?xml version="1.0" encoding="UTF-8"?>
<svg width="40px" height="40px" viewBox="0 0 40 40" version="1.1" xmlns="http://www.w3.org/2000/svg" xmlns:xlink="http://www.w3.org/1999/xlink">
    <title>i-truck-east-south</title>
    <g id="Customer-Alert-App" stroke="none" stroke-width="1" fill="none" fill-rule="evenodd">
        <g id="Icons" transform="translate(-331.000000, -127.000000)">
            <g id="i-truck-east-south" transform="translate(331.000000, 127.000000)">
                <rect id="ViewBox" x="0" y="0" width="40" height="40"></rect>
                <path d="M20,0 C11.6726,0 4.92186667,6.7507 4.92186667,15.0781333 C4.92186667,17.8630333 5.46696667,20.7393667 7.03123333,22.8125 L20,40 L32.9687333,22.8125 C34.3895667,20.9295 35.0781,17.6006333 35.0781,15.0781333 C35.0781,6.7507 28.3274,0 20,0 Z" id="Path" fill="#000000" fill-rule="nonzero"></path>
                <path d="M19.9218667,4 C25.9961485,4 30.9218667,8.92576298 30.9218667,14.9999711 C30.9218667,21.0742948 25.9961485,26 19.9218667,26 C13.8475848,26 8.92186667,21.0742948 8.92186667,15.0000289 C8.92186667,8.92576298 13.8475848,4 19.9218667,4 Z" id="Path" fill="#FFFFFF" fill-rule="nonzero"></path>
                <path d="M13.0842105,16.125 L12.5157895,15 L16.4947368,15 L16.04,13.875 L12.3263158,13.875 L11.7578947,12.75 L17.6694737,12.75 L17.2147368,11.625 L11.6517895,11.625 L11,10.5 L13.8421053,10.5 C13.8421053,9.67157288 14.5207473,9 15.3578947,9 L24.4526316,9 L24.4526316,12 L26.7263158,12 L29,15 L29,18.75 L27.4842105,18.75 C27.4842105,19.9926407 26.4662474,21 25.2105263,21 C23.9548052,21 22.9368421,19.9926407 22.9368421,18.75 L19.9052632,18.75 C19.9052632,19.9926407 18.8873001,21 17.6315789,21 C16.3758578,21 15.3578947,19.9926407 15.3578947,18.75 L13.8421053,18.75 L13.8421053,16.125 L13.0842105,16.125 M25.2105263,19.875 C25.8383869,19.875 26.3473684,19.3713203 26.3473684,18.75 C26.3473684,18.1286797 25.8383869,17.625 25.2105263,17.625 C24.5826658,17.625 24.0736842,18.1286797 24.0736842,18.75 C24.0736842,19.3713203 24.5826658,19.875 25.2105263,19.875 M26.3473684,13.125 L24.4526316,13.125 L24.4526316,15 L27.8328421,15 L26.3473684,13.125 M17.6315789,19.875 C18.2594395,19.875 18.7684211,19.3713203 18.7684211,18.75 C18.7684211,18.1286797 18.2594395,17.625 17.6315789,17.625 C17.0037184,17.625 16.4947368,18.1286797 16.4947368,18.75 C16.4947368,19.3713203 17.0037184,19.875 17.6315789,19.875 Z" id="Truck-Shape" fill="#000000" fill-rule="nonzero" transform="translate(20.000000, 15.000000) rotate(45.000000) translate(-20.000000, -15.000000) "></path>
            </g>
        </g>
    </g>
</svg>