<?xml version="1.0" encoding="UTF-8"?>
<svg width="20px" height="20px" viewBox="0 0 20 20" version="1.1" xmlns="http://www.w3.org/2000/svg" xmlns:xlink="http://www.w3.org/1999/xlink">
    <title>icon-edit</title>
    <g id="Customer-Alert-App" stroke="none" stroke-width="1" fill="none" fill-rule="evenodd">
        <g id="Color-Guide" transform="translate(-1192.000000, -576.000000)">
            <g id="icon-edit" transform="translate(1192.000000, 576.000000)">
                <g id="Group-2" fill="#000000" fill-rule="nonzero">
                    <polygon id="Path" points="0 18.5 20 18.5 20 20 0 20"></polygon>
                    <path d="M19.5636364,5.09090909 C20.1454545,4.50909091 20.1454545,3.63636364 19.5636364,3.05454545 L16.9454545,0.436363636 C16.3636364,-0.145454545 15.4909091,-0.145454545 14.9090909,0.436363636 L4,11.3454545 L4,16 L8.65454545,16 L19.5636364,5.09090909 Z M15.9272727,1.45454545 L18.5454545,4.07272727 L16.3636364,6.25454545 L13.7454545,3.63636364 L15.9272727,1.45454545 Z M5.45454545,14.5454545 L5.45454545,11.9272727 L12.7272727,4.65454545 L15.3454545,7.27272727 L8.07272727,14.5454545 L5.45454545,14.5454545 Z" id="Shape"></path>
                </g>
                <rect id="ViewBox" x="0" y="0" width="20" height="20"></rect>
            </g>
        </g>
    </g>
</svg>