<?xml version="1.0" encoding="UTF-8"?>
<svg width="21px" height="20px" viewBox="0 0 21 20" version="1.1" xmlns="http://www.w3.org/2000/svg" xmlns:xlink="http://www.w3.org/1999/xlink">
    <title>icon-thumb-down</title>
    <g id="Customer-Alert-App" stroke="none" stroke-width="1" fill="none" fill-rule="evenodd">
        <g id="Color-Guide" transform="translate(-1189.000000, -736.000000)">
            <g id="icon-thumb-down" transform="translate(1199.500000, 746.000000) scale(1, -1) translate(-1199.500000, -746.000000) translate(1189.000000, 736.000000)">
                <rect id="ViewBox" x="0" y="0" width="21" height="20"></rect>
                <path d="M12.4289773,20 C10.9971591,20 9.88020833,19.9869792 9.078125,19.9609375 C8.27604167,19.9348958 7.65956439,19.8795573 7.22869318,19.7949219 C6.79782197,19.7102865 6.52604167,19.6386719 6.41335227,19.5800781 C6.30066288,19.5214844 6.11837121,19.4075521 5.86647727,19.2382812 C5.66761364,19.0820312 5.3063447,18.9550781 4.78267045,18.8574219 C4.25899621,18.7597656 3.38731061,18.671875 2.16761364,18.59375 C1.95549242,18.5807292 1.78977273,18.5026042 1.67045455,18.359375 C1.64393939,18.3203125 1.59090909,18.2356771 1.51136364,18.1054688 C1.43181818,17.9752604 1.31912879,17.7571615 1.17329545,17.4511719 C1.02746212,17.1451823 0.89157197,16.8098958 0.765625,16.4453125 C0.63967803,16.0807292 0.53030303,15.625 0.4375,15.078125 C0.34469697,14.53125 0.298295455,13.9778646 0.298295455,13.4179688 C0.298295455,11.5169271 0.623106061,10.0585938 1.27272727,9.04296875 C1.40530303,8.84765625 1.59090909,8.75 1.82954545,8.75 C2.94318182,8.75 4.16619318,8.0859375 5.49857955,6.7578125 C6.83096591,5.4296875 7.98106061,3.62630208 8.94886364,1.34765625 C8.97537879,1.30859375 9.01846591,1.21744792 9.078125,1.07421875 C9.13778409,0.930989583 9.17424242,0.83984375 9.1875,0.80078125 C9.20075758,0.76171875 9.23721591,0.686848958 9.296875,0.576171875 C9.35653409,0.465494792 9.40956439,0.393880208 9.45596591,0.361328125 C9.50236742,0.328776042 9.56534091,0.279947917 9.64488636,0.21484375 C9.72443182,0.149739583 9.80729167,0.107421875 9.89346591,0.087890625 C9.97964015,0.068359375 10.0857008,0.048828125 10.2116477,0.029296875 C10.3375947,0.009765625 10.4801136,0 10.6392045,0 C10.8778409,0 11.1231061,0.0520833333 11.375,0.15625 C11.6268939,0.260416667 11.8589015,0.400390625 12.0710227,0.576171875 C12.2831439,0.751953125 12.4554924,0.950520833 12.5880682,1.171875 C12.8399621,1.57552083 12.9857955,2.15494792 13.0255682,2.91015625 C13.0653409,3.66536458 13.0421402,4.36848958 12.9559659,5.01953125 C12.8697917,5.67057292 12.7537879,6.29557292 12.6079545,6.89453125 C14.967803,6.88151042 16.5719697,6.875 17.4204545,6.875 C18.2026515,6.875 18.8357008,7.08333333 19.3196023,7.5 C19.8035038,7.91666667 20.0520833,8.46354167 20.0653409,9.140625 C20.0785985,9.71354167 20.0189394,10.1497396 19.8863636,10.4492188 C20.1117424,10.6705729 20.3006629,10.9016927 20.453125,11.1425781 C20.6055871,11.3834635 20.688447,11.6536458 20.7017045,11.953125 C20.7149621,12.5651042 20.4100379,13.1901042 19.7869318,13.828125 C19.8001894,13.8541667 19.8267045,13.9160156 19.8664773,14.0136719 C19.90625,14.1113281 19.9360795,14.1927083 19.9559659,14.2578125 C19.9758523,14.3229167 19.9924242,14.4042969 20.0056818,14.5019531 C20.0189394,14.5996094 20.0255682,14.6940104 20.0255682,14.7851562 C19.999053,15.5013021 19.5748106,16.1393229 18.7528409,16.6992188 C18.8191288,17.1289062 18.8125,17.5130208 18.7329545,17.8515625 C18.4147727,19.2838542 16.313447,20 12.4289773,20 Z M2.50568182,17.3242188 C4.67992424,17.4934896 6.05871212,17.7929688 6.64204545,18.2226562 C6.85416667,18.3789062 7.03977273,18.4830729 7.19886364,18.5351562 C7.35795455,18.5872396 7.83522727,18.6360677 8.63068182,18.6816406 C9.42613636,18.7272135 10.6922348,18.75 12.4289773,18.75 C12.9725379,18.75 13.4663826,18.7369792 13.9105114,18.7109375 C14.3546402,18.6848958 14.8683712,18.6393229 15.4517045,18.5742188 C16.0350379,18.5091146 16.5056818,18.3919271 16.8636364,18.2226562 C17.2215909,18.0533854 17.4337121,17.8385417 17.5,17.578125 C17.5530303,17.3046875 17.4270833,17.0117188 17.1221591,16.6992188 C17.0558712,16.5429688 17.0558712,16.3834635 17.1221591,16.2207031 C17.188447,16.0579427 17.2945076,15.9440104 17.4403409,15.8789062 L17.4602273,15.8789062 C17.5265152,15.8528646 17.6060606,15.8203125 17.6988636,15.78125 C17.7916667,15.7421875 17.9275568,15.6705729 18.1065341,15.5664062 C18.2855114,15.4622396 18.4346591,15.3352865 18.5539773,15.1855469 C18.6732955,15.0358073 18.7395833,14.8893229 18.7528409,14.7460938 C18.7528409,14.6940104 18.7495265,14.6451823 18.7428977,14.5996094 C18.7362689,14.5540365 18.7296402,14.5117188 18.7230114,14.4726562 C18.7163826,14.4335938 18.703125,14.3945312 18.6832386,14.3554688 L18.6335227,14.2578125 L18.5838068,14.1796875 L18.5340909,14.1113281 L18.4943182,14.0625 L18.4644886,14.0234375 L18.4545455,14.0039062 C18.4015152,13.9388021 18.3683712,13.8671875 18.3551136,13.7890625 C18.3418561,13.7109375 18.3418561,13.6328125 18.3551136,13.5546875 C18.3683712,13.4765625 18.3982008,13.4016927 18.4446023,13.3300781 C18.4910038,13.2584635 18.5473485,13.1966146 18.6136364,13.1445312 C18.6931818,13.1054688 18.7793561,13.0501302 18.8721591,12.9785156 C18.9649621,12.906901 19.0809659,12.7734375 19.2201705,12.578125 C19.359375,12.3828125 19.4289773,12.1875 19.4289773,11.9921875 C19.4157197,11.6666667 19.1638258,11.3606771 18.6732955,11.0742188 C18.59375,11.0221354 18.5274621,10.9602865 18.4744318,10.8886719 C18.4214015,10.8170573 18.3816288,10.7356771 18.3551136,10.6445312 C18.3418561,10.5924479 18.3385417,10.5371094 18.3451705,10.4785156 C18.3517992,10.4199219 18.3650568,10.3613281 18.3849432,10.3027344 C18.4048295,10.2441406 18.4346591,10.1888021 18.4744318,10.1367188 C18.4876894,10.1236979 18.500947,10.1074219 18.5142045,10.0878906 C18.5274621,10.0683594 18.5539773,10.0195312 18.59375,9.94140625 C18.6335227,9.86328125 18.6666667,9.78841146 18.6931818,9.71679688 C18.719697,9.64518229 18.7428977,9.55729167 18.7627841,9.453125 C18.7826705,9.34895833 18.7926136,9.25130208 18.7926136,9.16015625 C18.7793561,8.92578125 18.7163826,8.73046875 18.6036932,8.57421875 C18.4910038,8.41796875 18.3451705,8.31054688 18.1661932,8.25195312 C17.9872159,8.19335938 17.844697,8.15755208 17.7386364,8.14453125 C17.6325758,8.13151042 17.5265152,8.125 17.4204545,8.125 L12.7670455,8.125 L11.6931818,8.14453125 C11.6401515,8.14453125 11.5871212,8.13802083 11.5340909,8.125 C11.4810606,8.11197917 11.4313447,8.09244792 11.3849432,8.06640625 C11.3385417,8.04036458 11.2954545,8.01106771 11.2556818,7.97851562 C11.2159091,7.94596354 11.1827652,7.90364583 11.15625,7.8515625 C11.0369318,7.68229167 11.0170455,7.48697917 11.0965909,7.265625 C11.3087121,6.66666667 11.4777462,6.00911458 11.6036932,5.29296875 C11.7296402,4.57682292 11.7892992,3.89322917 11.7826705,3.2421875 C11.7760417,2.59114583 11.6799242,2.11588542 11.4943182,1.81640625 C11.4810606,1.79036458 11.4545455,1.74479167 11.4147727,1.6796875 C11.375,1.61458333 11.3484848,1.56901042 11.3352273,1.54296875 C11.3219697,1.51692708 11.2921402,1.48111979 11.2457386,1.43554688 C11.1993371,1.38997396 11.1529356,1.35742188 11.1065341,1.33789062 C11.0601326,1.31835938 10.9971591,1.29882812 10.9176136,1.27929688 C10.8380682,1.25976562 10.7452652,1.25 10.6392045,1.25 C10.5994318,1.25 10.5596591,1.26302083 10.5198864,1.2890625 C10.4801136,1.31510417 10.4204545,1.37369792 10.3409091,1.46484375 C10.2613636,1.55598958 10.188447,1.6796875 10.1221591,1.8359375 C9.10132576,4.2578125 7.86837121,6.18815104 6.42329545,7.62695312 C4.9782197,9.06575521 3.57954545,9.85026042 2.22727273,9.98046875 C2.12121212,10.2148438 2.02840909,10.4492188 1.94886364,10.6835938 C1.86931818,10.9179688 1.78645833,11.2890625 1.70028409,11.796875 C1.61410985,12.3046875 1.57102273,12.8450521 1.57102273,13.4179688 C1.57102273,14.0039062 1.63068182,14.5865885 1.75,15.1660156 C1.86931818,15.7454427 1.99195076,16.2011719 2.11789773,16.5332031 C2.2438447,16.8652344 2.37310606,17.1289062 2.50568182,17.3242188 Z" id="Shape" fill="#000000" fill-rule="nonzero"></path>
            </g>
        </g>
    </g>
</svg>