<svg xmlns="http://www.w3.org/2000/svg" viewBox="0 0 60 60">
  <g fill="none" fill-rule="evenodd">
    <path d="M0 0h60v60H0z"/>
    <path d="M30 0C17.509 0 7.383 10.126 7.383 22.617c0 4.178.817 8.492 3.164 11.602L30 60l19.453-25.781c2.131-2.825 3.164-7.818 3.164-11.602C52.617 10.126 42.491 0 30 0Z" fill="#FFFFFF" fill-rule="nonzero"/>
    <path d="M30 0c12.491 0 22.617 10.126 22.617 22.617 0 3.784-1.033 8.777-3.164 11.602L30 60 10.547 34.219c-2.347-3.11-3.164-7.424-3.164-11.602C7.383 10.126 17.509 0 30 0Zm0 4.5c-9.94 0-18 8.06-18 18s8.06 18 18 18 18-8.06 18-18-8.06-18-18-18ZM29.04 30v-2.941H21.62c.211-.352.47-.66.78-.926.308-.266.88-.695 1.716-1.29l1.336-.948c1.125-.797 1.934-1.52 2.426-2.168.75-.977 1.125-2.094 1.125-3.352 0-1.64-.531-2.959-1.594-3.955-1.062-.996-2.492-1.494-4.289-1.494-2.273 0-3.855.847-4.746 2.543-.469.89-.73 2.058-.785 3.504h3.246c.039-.953.164-1.649.375-2.086.367-.758 1.059-1.137 2.074-1.137.742 0 1.313.238 1.711.715.399.476.598 1.074.598 1.793 0 .883-.348 1.695-1.043 2.437-.453.477-1.45 1.266-2.988 2.367-1.774 1.266-2.899 2.465-3.375 3.598-.493 1.008-.754 2.121-.786 3.34H29.04Zm7.57.422c2.163 0 3.681-.758 4.552-2.274.871-1.515 1.307-3.675 1.307-6.48 0-2.805-.434-4.969-1.301-6.492-.875-1.524-2.395-2.285-4.559-2.285s-3.681.761-4.552 2.285c-.871 1.523-1.307 3.687-1.307 6.492s.436 4.965 1.307 6.48c.87 1.516 2.388 2.274 4.552 2.274Zm0-2.719c-.993 0-1.65-.517-1.97-1.553-.32-1.035-.48-2.529-.48-4.482 0-2.047.16-3.563.48-4.547.32-.984.977-1.476 1.97-1.476.992 0 1.642.492 1.95 1.476.31.984.463 2.5.463 4.547 0 1.953-.152 3.445-.457 4.477-.312 1.039-.964 1.558-1.957 1.558Z" fill="#075895" fill-rule="nonzero"/>
  </g>
</svg>
