<svg xmlns="http://www.w3.org/2000/svg" viewBox="0 0 60 60">
  <g fill="none" fill-rule="evenodd">
    <path d="M0 0h60v60H0z"/>
    <path d="M30 0C17.509 0 7.383 10.126 7.383 22.617c0 4.178.817 8.492 3.164 11.602L30 60l19.453-25.781c2.131-2.825 3.164-7.818 3.164-11.602C52.617 10.126 42.491 0 30 0Z" fill="#FFFFFF" fill-rule="nonzero"/>
    <path d="M30 0c12.491 0 22.617 10.126 22.617 22.617 0 3.784-1.033 8.777-3.164 11.602L30 60 10.547 34.219c-2.347-3.11-3.164-7.424-3.164-11.602C7.383 10.126 17.509 0 30 0Zm0 4.5c-9.94 0-18 8.06-18 18s8.06 18 18 18 18-8.06 18-18-8.06-18-18-18ZM25.734 30V13.008h-2.777c0 .148-.043.375-.129.68-.148.507-.367.914-.656 1.218-.422.446-.969.742-1.64.89-.423.095-1.16.165-2.216.212v2.273h3.997V30h3.421Zm10.875.422c2.164 0 3.682-.758 4.553-2.274.871-1.515 1.307-3.675 1.307-6.48 0-2.805-.434-4.969-1.301-6.492-.875-1.524-2.395-2.285-4.559-2.285s-3.681.761-4.552 2.285c-.871 1.523-1.307 3.687-1.307 6.492s.436 4.965 1.307 6.48c.87 1.516 2.388 2.274 4.552 2.274Zm0-2.719c-.992 0-1.648-.517-1.968-1.553-.32-1.035-.48-2.529-.48-4.482 0-2.047.16-3.563.48-4.547.32-.984.976-1.476 1.968-1.476.993 0 1.643.492 1.952 1.476.308.984.462 2.5.462 4.547 0 1.953-.152 3.445-.457 4.477-.312 1.039-.964 1.558-1.957 1.558Z" fill="#075895" fill-rule="nonzero"/>
  </g>
</svg>
