<svg xmlns="http://www.w3.org/2000/svg" viewBox="0 0 60 60">
  <g fill="none" fill-rule="evenodd">
    <path d="M0 0h60v60H0z"/>
    <path d="M30 0C17.509 0 7.383 10.126 7.383 22.617c0 4.178.817 8.492 3.164 11.602L30 60l19.453-25.781c2.131-2.825 3.164-7.818 3.164-11.602C52.617 10.126 42.491 0 30 0Z" fill="#FFFFFF" fill-rule="nonzero"/>
    <path d="M30 0c12.491 0 22.617 10.126 22.617 22.617 0 3.784-1.033 8.777-3.164 11.602L30 60 10.547 34.219c-2.347-3.11-3.164-7.424-3.164-11.602C7.383 10.126 17.509 0 30 0Zm0 4.5c-9.94 0-18 8.06-18 18s8.06 18 18 18 18-8.06 18-18-8.06-18-18-18Zm-.006 25.945c1.992 0 3.461-.605 4.406-1.816.946-1.211 1.418-2.61 1.418-4.195 0-1.594-.482-2.903-1.447-3.926-.965-1.024-2.201-1.535-3.709-1.535-.703 0-1.328.113-1.875.34a3.748 3.748 0 0 0-1.441 1.078c.093-1.313.265-2.305.515-2.977.461-1.219 1.235-1.828 2.32-1.828.727 0 1.27.266 1.63.797.21.328.316.629.316.902h3.328c-.117-1.344-.644-2.42-1.582-3.228-.937-.809-2.195-1.213-3.773-1.213-1.094 0-2.034.25-2.819.75-.785.5-1.42 1.16-1.904 1.98-.563.961-.941 2.164-1.137 3.61-.11.812-.164 1.867-.164 3.164 0 2.21.395 4.015 1.184 5.414 1.015 1.789 2.594 2.683 4.734 2.683Zm.047-2.718c-.758 0-1.383-.29-1.875-.868-.492-.578-.738-1.324-.738-2.238 0-1.133.328-1.953.984-2.46a2.378 2.378 0 0 1 1.512-.516c.703 0 1.297.263 1.781.79.484.528.727 1.288.727 2.28 0 .89-.213 1.615-.639 2.174-.426.558-1.01.838-1.752.838Z" fill="#075895" fill-rule="nonzero"/>
  </g>
</svg>
