<svg xmlns="http://www.w3.org/2000/svg" viewBox="0 0 60 60">
  <g fill="none" fill-rule="evenodd">
    <path d="M0 0h60v60H0z"/>
    <path d="M30 0C17.509 0 7.383 10.126 7.383 22.617c0 4.178.817 8.492 3.164 11.602L30 60l19.453-25.781c2.131-2.825 3.164-7.818 3.164-11.602C52.617 10.126 42.491 0 30 0Z" fill="#FFFFFF" fill-rule="nonzero"/>
    <path d="M30 0c12.491 0 22.617 10.126 22.617 22.617 0 3.784-1.033 8.777-3.164 11.602L30 60 10.547 34.219c-2.347-3.11-3.164-7.424-3.164-11.602C7.383 10.126 17.509 0 30 0Zm0 4.5c-9.94 0-18 8.06-18 18s8.06 18 18 18 18-8.06 18-18-8.06-18-18-18Zm-.44 25.992c2.672 0 4.508-1.308 5.508-3.926.524-1.375.786-3.09.786-5.144 0-2.117-.274-3.824-.82-5.121-.962-2.29-2.735-3.434-5.321-3.434-1.68 0-3.045.565-4.096 1.694-1.05 1.128-1.576 2.603-1.576 4.423 0 1.758.523 3.104 1.57 4.037 1.047.934 2.246 1.4 3.598 1.4.914 0 1.684-.187 2.309-.562.343-.203.668-.496.972-.879-.062 1.29-.215 2.27-.457 2.942-.445 1.219-1.219 1.828-2.32 1.828-.57 0-1.027-.156-1.371-.469-.344-.312-.555-.718-.633-1.218h-3.328c.148 1.445.73 2.544 1.746 3.298a5.617 5.617 0 0 0 3.434 1.131Zm.376-8.789c-.852 0-1.483-.252-1.893-.756-.41-.504-.615-1.26-.615-2.267 0-1.196.32-2.043.96-2.543.407-.32.895-.48 1.466-.48.78 0 1.396.28 1.845.843.45.563.674 1.324.674 2.285 0 1.195-.379 2.035-1.137 2.52-.406.265-.84.398-1.3.398Z" fill="#075895" fill-rule="nonzero"/>
  </g>
</svg>
