<svg xmlns="http://www.w3.org/2000/svg" viewBox="0 0 60 60">
  <g fill="none" fill-rule="evenodd">
    <path d="M0 0h60v60H0z"/>
    <path d="M30 0C17.509 0 7.383 10.126 7.383 22.617c0 4.178.817 8.492 3.164 11.602L30 60l19.453-25.781c2.131-2.825 3.164-7.818 3.164-11.602C52.617 10.126 42.491 0 30 0Z" fill="#FFFFFF" fill-rule="nonzero"/>
    <path d="M30 0c12.491 0 22.617 10.126 22.617 22.617 0 3.784-1.033 8.777-3.164 11.602L30 60 10.547 34.219c-2.347-3.11-3.164-7.424-3.164-11.602C7.383 10.126 17.509 0 30 0Zm0 4.5c-9.94 0-18 8.06-18 18s8.06 18 18 18 18-8.06 18-18-8.06-18-18-18Zm-6.879 25.922c1.953 0 3.428-.545 4.424-1.635.996-1.09 1.494-2.353 1.494-3.79 0-1.368-.426-2.446-1.277-3.235-.57-.524-1.008-.785-1.313-.785.406-.157.797-.45 1.172-.88.594-.687.89-1.53.89-2.53 0-1.415-.497-2.542-1.493-3.381-.997-.84-2.307-1.26-3.932-1.26-.875 0-1.613.105-2.215.316a4.49 4.49 0 0 0-1.558.914c-.586.563-1.016 1.176-1.29 1.84a8.382 8.382 0 0 0-.433 2.402h3.117c-.016-.835.164-1.503.54-2.003.366-.5.944-.75 1.733-.75.688 0 1.221.203 1.6.609.379.406.568.933.568 1.582 0 1-.37 1.664-1.113 1.992-.43.195-1.187.3-2.273.317v2.39c1.11 0 1.922.106 2.437.317.906.375 1.36 1.12 1.36 2.238 0 .844-.245 1.49-.733 1.94-.488.449-1.06.673-1.717.673-1.07 0-1.808-.41-2.214-1.23-.22-.446-.329-1.008-.329-1.688h-3.28c.054 1.352.327 2.445.82 3.281.937 1.57 2.609 2.356 5.015 2.356Zm13.488 0c2.164 0 3.682-.758 4.553-2.274.871-1.515 1.307-3.675 1.307-6.48 0-2.805-.434-4.969-1.301-6.492-.875-1.524-2.395-2.285-4.559-2.285s-3.681.761-4.552 2.285c-.871 1.523-1.307 3.687-1.307 6.492s.436 4.965 1.307 6.48c.87 1.516 2.388 2.274 4.552 2.274Zm0-2.719c-.992 0-1.648-.517-1.968-1.553-.32-1.035-.48-2.529-.48-4.482 0-2.047.16-3.563.48-4.547.32-.984.976-1.476 1.968-1.476.993 0 1.643.492 1.952 1.476.308.984.462 2.5.462 4.547 0 1.953-.152 3.445-.457 4.477-.312 1.039-.964 1.558-1.957 1.558Z" fill="#075895" fill-rule="nonzero"/>
  </g>
</svg>
