<svg xmlns="http://www.w3.org/2000/svg" viewBox="0 0 60 60">
  <g fill="none" fill-rule="evenodd">
    <path d="M0 0h60v60H0z"/>
    <path d="M30 0C17.509 0 7.383 10.126 7.383 22.617c0 4.178.817 8.492 3.164 11.602L30 60l19.453-25.781c2.131-2.825 3.164-7.818 3.164-11.602C52.617 10.126 42.491 0 30 0Z" fill="#FFFFFF" fill-rule="nonzero"/>
    <path d="M30 0c12.491 0 22.617 10.126 22.617 22.617 0 3.784-1.033 8.777-3.164 11.602L30 60 10.547 34.219c-2.347-3.11-3.164-7.424-3.164-11.602C7.383 10.126 17.509 0 30 0Zm0 4.5c-9.94 0-18 8.06-18 18s8.06 18 18 18 18-8.06 18-18-8.06-18-18-18ZM25.734 30V13.008h-2.777c0 .148-.043.375-.129.68-.148.507-.367.914-.656 1.218-.422.446-.969.742-1.64.89-.423.095-1.16.165-2.216.212v2.273h3.997V30h3.421Zm14.895 0v-3.656h1.922V23.73h-1.922V13.113h-3.75l-6.246 10.313v2.918h6.726V30h3.27Zm-3.27-6.27h-4.254l4.254-7.335v7.335Z" fill="#075895" fill-rule="nonzero"/>
  </g>
</svg>
