<svg xmlns="http://www.w3.org/2000/svg" viewBox="0 0 60 60">
  <g fill="none" fill-rule="evenodd">
    <path d="M0 0h60v60H0z"/>
    <path d="M30 0C17.509 0 7.383 10.126 7.383 22.617c0 4.178.817 8.492 3.164 11.602L30 60l19.453-25.781c2.131-2.825 3.164-7.818 3.164-11.602C52.617 10.126 42.491 0 30 0Z" fill="#FFFFFF" fill-rule="nonzero"/>
    <path d="M30 0c12.491 0 22.617 10.126 22.617 22.617 0 3.784-1.033 8.777-3.164 11.602L30 60 10.547 34.219c-2.347-3.11-3.164-7.424-3.164-11.602C7.383 10.126 17.509 0 30 0Zm0 4.5c-9.94 0-18 8.06-18 18s8.06 18 18 18 18-8.06 18-18-8.06-18-18-18ZM29.795 30c0-.977.191-2.227.574-3.75.383-1.523.813-2.813 1.29-3.867a23.441 23.441 0 0 1 2.237-3.914c.891-1.258 1.586-2.133 2.086-2.625V13.23h-12l-.046 3h8.472c-.828.805-1.855 2.227-3.082 4.266-1.898 3.29-2.898 6.457-3 9.504Z" fill="#075895" fill-rule="nonzero"/>
  </g>
</svg>
