<svg xmlns="http://www.w3.org/2000/svg" viewBox="0 0 60 60">
  <g fill="none" fill-rule="evenodd">
    <path d="M0 0h60v60H0z"/>
    <path d="M30 0C17.509 0 7.383 10.126 7.383 22.617c0 4.178.817 8.492 3.164 11.602L30 60l19.453-25.781c2.131-2.825 3.164-7.818 3.164-11.602C52.617 10.126 42.491 0 30 0Z" fill="#FFFFFF" fill-rule="nonzero"/>
    <path d="M30 0c12.491 0 22.617 10.126 22.617 22.617 0 3.784-1.033 8.777-3.164 11.602L30 60 10.547 34.219c-2.347-3.11-3.164-7.424-3.164-11.602C7.383 10.126 17.509 0 30 0Zm0 4.5c-9.94 0-18 8.06-18 18s8.06 18 18 18 18-8.06 18-18-8.06-18-18-18Zm-.322 25.945c2.008 0 3.515-.617 4.523-1.851 1.008-1.235 1.512-2.637 1.512-4.207 0-1.805-.524-3.18-1.57-4.125-1.047-.946-2.274-1.418-3.68-1.418-.695 0-1.285.09-1.77.27-.289.109-.691.331-1.207.667l.61-3.715h6.949V13.23h-9.363l-1.196 9.387 3 .14c.266-.507.66-.855 1.184-1.042a3.267 3.267 0 0 1 1.055-.152c.859 0 1.492.298 1.898.896.406.598.61 1.33.61 2.197 0 .883-.217 1.615-.651 2.198-.434.582-1.064.873-1.893.873-.718 0-1.265-.198-1.64-.592-.375-.395-.63-.955-.762-1.682H23.96c.117 1.594.695 2.824 1.734 3.692 1.04.867 2.368 1.3 3.985 1.3Z" fill="#075895" fill-rule="nonzero"/>
  </g>
</svg>
