<svg xmlns="http://www.w3.org/2000/svg" viewBox="0 0 60 60">
  <g fill="none" fill-rule="evenodd">
    <path d="M0 0h60v60H0z"/>
    <path d="M30 0C17.509 0 7.383 10.126 7.383 22.617c0 4.178.817 8.492 3.164 11.602L30 60l19.453-25.781c2.131-2.825 3.164-7.818 3.164-11.602C52.617 10.126 42.491 0 30 0Z" fill="#FFFFFF" fill-rule="nonzero"/>
    <path d="M30 0c12.491 0 22.617 10.126 22.617 22.617 0 3.784-1.033 8.777-3.164 11.602L30 60 10.547 34.219c-2.347-3.11-3.164-7.424-3.164-11.602C7.383 10.126 17.509 0 30 0Zm0 4.5c-9.94 0-18 8.06-18 18s8.06 18 18 18 18-8.06 18-18-8.06-18-18-18ZM29.04 30v-2.941H21.62c.211-.352.47-.66.78-.926.308-.266.88-.695 1.716-1.29l1.336-.948c1.125-.797 1.934-1.52 2.426-2.168.75-.977 1.125-2.094 1.125-3.352 0-1.64-.531-2.959-1.594-3.955-1.062-.996-2.492-1.494-4.289-1.494-2.273 0-3.855.847-4.746 2.543-.469.89-.73 2.058-.785 3.504h3.246c.039-.953.164-1.649.375-2.086.367-.758 1.059-1.137 2.074-1.137.742 0 1.313.238 1.711.715.399.476.598 1.074.598 1.793 0 .883-.348 1.695-1.043 2.437-.453.477-1.45 1.266-2.988 2.367-1.774 1.266-2.899 2.465-3.375 3.598-.493 1.008-.754 2.121-.786 3.34H29.04Zm7.37.445c1.899 0 3.377-.502 4.436-1.506 1.058-1.003 1.588-2.22 1.588-3.65 0-.953-.211-1.816-.633-2.59-.422-.773-1.051-1.394-1.887-1.863.82-.469 1.354-1.022 1.6-1.658.246-.637.369-1.233.369-1.787 0-1.235-.465-2.287-1.395-3.159-.93-.87-2.242-1.306-3.937-1.306-1.696 0-3.008.435-3.938 1.306-.93.872-1.394 1.924-1.394 3.159 0 .554.123 1.15.369 1.787.246.636.78 1.228 1.6 1.775-.836.39-1.471.973-1.905 1.746-.433.774-.65 1.637-.65 2.59 0 1.43.488 2.645 1.465 3.645.976 1.007 2.414 1.511 4.312 1.511Zm.14-10.582c-.671 0-1.195-.195-1.57-.586-.382-.39-.574-.894-.574-1.511 0-.672.19-1.198.569-1.577.379-.378.904-.568 1.576-.568.68 0 1.205.19 1.576.568.371.38.557.905.557 1.577 0 .617-.186 1.12-.557 1.511-.371.391-.897.586-1.576.586Zm0 7.84c-.765 0-1.364-.23-1.798-.691-.434-.461-.65-1.11-.65-1.946 0-.867.22-1.525.662-1.974.441-.45 1.037-.674 1.787-.674s1.345.225 1.787.674c.441.449.662 1.107.662 1.974 0 .836-.217 1.485-.65 1.946-.434.46-1.034.691-1.8.691Z" fill="#075895" fill-rule="nonzero"/>
  </g>
</svg>
