<svg xmlns="http://www.w3.org/2000/svg" viewBox="0 0 60 60">
  <g fill="none" fill-rule="evenodd">
    <path d="M0 0h60v60H0z"/>
    <path d="M30 0C17.509 0 7.383 10.126 7.383 22.617c0 4.178.817 8.492 3.164 11.602L30 60l19.453-25.781c2.131-2.825 3.164-7.818 3.164-11.602C52.617 10.126 42.491 0 30 0Z" fill="#FFFFFF" fill-rule="nonzero"/>
    <path d="M30 0c12.491 0 22.617 10.126 22.617 22.617 0 3.784-1.033 8.777-3.164 11.602L30 60 10.547 34.219c-2.347-3.11-3.164-7.424-3.164-11.602C7.383 10.126 17.509 0 30 0Zm0 4.5c-9.94 0-18 8.06-18 18s8.06 18 18 18 18-8.06 18-18-8.06-18-18-18ZM29.04 30v-2.941H21.62c.211-.352.47-.66.78-.926.308-.266.88-.695 1.716-1.29l1.336-.948c1.125-.797 1.934-1.52 2.426-2.168.75-.977 1.125-2.094 1.125-3.352 0-1.64-.531-2.959-1.594-3.955-1.062-.996-2.492-1.494-4.289-1.494-2.273 0-3.855.847-4.746 2.543-.469.89-.73 2.058-.785 3.504h3.246c.039-.953.164-1.649.375-2.086.367-.758 1.059-1.137 2.074-1.137.742 0 1.313.238 1.711.715.399.476.598 1.074.598 1.793 0 .883-.348 1.695-1.043 2.437-.453.477-1.45 1.266-2.988 2.367-1.774 1.266-2.899 2.465-3.375 3.598-.493 1.008-.754 2.121-.786 3.34H29.04Zm7.194.492c2.672 0 4.508-1.308 5.508-3.926.524-1.375.785-3.09.785-5.144 0-2.117-.273-3.824-.82-5.121-.96-2.29-2.734-3.434-5.32-3.434-1.68 0-3.045.565-4.096 1.694-1.05 1.128-1.576 2.603-1.576 4.423 0 1.758.523 3.104 1.57 4.037 1.047.934 2.246 1.4 3.598 1.4.914 0 1.683-.187 2.308-.562.344-.203.668-.496.973-.879-.062 1.29-.215 2.27-.457 2.942-.445 1.219-1.219 1.828-2.32 1.828-.57 0-1.028-.156-1.371-.469-.344-.312-.555-.718-.633-1.218h-3.328c.148 1.445.73 2.544 1.746 3.298a5.617 5.617 0 0 0 3.433 1.131Zm.375-8.789c-.851 0-1.482-.252-1.892-.756-.41-.504-.615-1.26-.615-2.267 0-1.196.32-2.043.96-2.543.407-.32.895-.48 1.465-.48.782 0 1.397.28 1.846.843.45.563.674 1.324.674 2.285 0 1.195-.379 2.035-1.137 2.52-.406.265-.84.398-1.3.398Z" fill="#075895" fill-rule="nonzero"/>
  </g>
</svg>
