<svg xmlns="http://www.w3.org/2000/svg" viewBox="0 0 60 60">
  <g fill="none" fill-rule="evenodd">
    <path d="M0 0h60v60H0z"/>
    <path d="M30 0C17.509 0 7.383 10.126 7.383 22.617c0 4.178.817 8.492 3.164 11.602L30 60l19.453-25.781c2.131-2.825 3.164-7.818 3.164-11.602C52.617 10.126 42.491 0 30 0Z" fill="#FFFFFF" fill-rule="nonzero"/>
    <path d="M30 0c12.491 0 22.617 10.126 22.617 22.617 0 3.784-1.033 8.777-3.164 11.602L30 60 10.547 34.219c-2.347-3.11-3.164-7.424-3.164-11.602C7.383 10.126 17.509 0 30 0Zm0 4.5c-9.94 0-18 8.06-18 18s8.06 18 18 18 18-8.06 18-18-8.06-18-18-18ZM25.734 30V13.008h-2.777c0 .148-.043.375-.129.68-.148.507-.367.914-.656 1.218-.422.446-.969.742-1.64.89-.423.095-1.16.165-2.216.212v2.273h3.997V30h3.421Zm10.676.445c1.899 0 3.377-.502 4.436-1.506 1.058-1.003 1.588-2.22 1.588-3.65 0-.953-.211-1.816-.633-2.59-.422-.773-1.051-1.394-1.887-1.863.82-.469 1.354-1.022 1.6-1.658.246-.637.369-1.233.369-1.787 0-1.235-.465-2.287-1.395-3.159-.93-.87-2.242-1.306-3.937-1.306-1.696 0-3.008.435-3.938 1.306-.93.872-1.394 1.924-1.394 3.159 0 .554.123 1.15.369 1.787.246.636.78 1.228 1.6 1.775-.836.39-1.471.973-1.905 1.746-.433.774-.65 1.637-.65 2.59 0 1.43.488 2.645 1.465 3.645.976 1.007 2.414 1.511 4.312 1.511Zm.14-10.582c-.671 0-1.195-.195-1.57-.586-.382-.39-.574-.894-.574-1.511 0-.672.19-1.198.569-1.577.379-.378.904-.568 1.576-.568.68 0 1.205.19 1.576.568.371.38.557.905.557 1.577 0 .617-.186 1.12-.557 1.511-.371.391-.897.586-1.576.586Zm0 7.84c-.765 0-1.364-.23-1.798-.691-.434-.461-.65-1.11-.65-1.946 0-.867.22-1.525.662-1.974.441-.45 1.037-.674 1.787-.674s1.345.225 1.787.674c.441.449.662 1.107.662 1.974 0 .836-.217 1.485-.65 1.946-.434.46-1.034.691-1.8.691Z" fill="#075895" fill-rule="nonzero"/>
  </g>
</svg>
