<svg xmlns="http://www.w3.org/2000/svg" viewBox="0 0 60 60">
  <g fill="none" fill-rule="evenodd">
    <path d="M0 0h60v60H0z"/>
    <path d="M30 0C17.509 0 7.383 10.126 7.383 22.617c0 4.178.817 8.492 3.164 11.602L30 60l19.453-25.781c2.131-2.825 3.164-7.818 3.164-11.602C52.617 10.126 42.491 0 30 0Z" fill="#FFFFFF" fill-rule="nonzero"/>
    <path d="M30 0c12.491 0 22.617 10.126 22.617 22.617 0 3.784-1.033 8.777-3.164 11.602L30 60 10.547 34.219c-2.347-3.11-3.164-7.424-3.164-11.602C7.383 10.126 17.509 0 30 0Zm0 4.5c-9.94 0-18 8.06-18 18s8.06 18 18 18 18-8.06 18-18-8.06-18-18-18ZM29.04 30v-2.941H21.62c.211-.352.47-.66.78-.926.308-.266.88-.695 1.716-1.29l1.336-.948c1.125-.797 1.934-1.52 2.426-2.168.75-.977 1.125-2.094 1.125-3.352 0-1.64-.531-2.959-1.594-3.955-1.062-.996-2.492-1.494-4.289-1.494-2.273 0-3.855.847-4.746 2.543-.469.89-.73 2.058-.785 3.504h3.246c.039-.953.164-1.649.375-2.086.367-.758 1.059-1.137 2.074-1.137.742 0 1.313.238 1.711.715.399.476.598 1.074.598 1.793 0 .883-.348 1.695-1.043 2.437-.453.477-1.45 1.266-2.988 2.367-1.774 1.266-2.899 2.465-3.375 3.598-.493 1.008-.754 2.121-.786 3.34H29.04Zm7.429.422c1.953 0 3.427-.545 4.424-1.635.996-1.09 1.494-2.353 1.494-3.79 0-1.368-.426-2.446-1.278-3.235-.57-.524-1.007-.785-1.312-.785.406-.157.797-.45 1.172-.88.593-.687.89-1.53.89-2.53 0-1.415-.498-2.542-1.494-3.381-.996-.84-2.306-1.26-3.931-1.26-.875 0-1.614.105-2.215.316a4.49 4.49 0 0 0-1.559.914c-.586.563-1.015 1.176-1.289 1.84a8.382 8.382 0 0 0-.433 2.402h3.117c-.016-.835.164-1.503.539-2.003.367-.5.945-.75 1.734-.75.688 0 1.22.203 1.6.609.379.406.568.933.568 1.582 0 1-.371 1.664-1.113 1.992-.43.195-1.188.3-2.274.317v2.39c1.11 0 1.922.106 2.438.317.906.375 1.36 1.12 1.36 2.238 0 .844-.245 1.49-.733 1.94-.488.449-1.06.673-1.717.673-1.07 0-1.809-.41-2.215-1.23-.219-.446-.328-1.008-.328-1.688h-3.281c.055 1.352.328 2.445.82 3.281.938 1.57 2.61 2.356 5.016 2.356Z" fill="#075895" fill-rule="nonzero"/>
  </g>
</svg>
