<svg xmlns="http://www.w3.org/2000/svg" viewBox="0 0 60 60">
  <g fill="none" fill-rule="evenodd">
    <path d="M0 0h60v60H0z"/>
    <path d="M30 0C17.509 0 7.383 10.126 7.383 22.617c0 4.178.817 8.492 3.164 11.602L30 60l19.453-25.781c2.131-2.825 3.164-7.818 3.164-11.602C52.617 10.126 42.491 0 30 0Z" fill="#FFFFFF" fill-rule="nonzero"/>
    <path d="M30 0c12.491 0 22.617 10.126 22.617 22.617 0 3.784-1.033 8.777-3.164 11.602L30 60 10.547 34.219c-2.347-3.11-3.164-7.424-3.164-11.602C7.383 10.126 17.509 0 30 0Zm0 4.5c-9.94 0-18 8.06-18 18s8.06 18 18 18 18-8.06 18-18-8.06-18-18-18ZM25.734 30V13.008h-2.777c0 .148-.043.375-.129.68-.148.507-.367.914-.656 1.218-.422.446-.969.742-1.64.89-.423.095-1.16.165-2.216.212v2.273h3.997V30h3.421Zm10.934.445c1.992 0 3.46-.605 4.406-1.816.946-1.211 1.418-2.61 1.418-4.195 0-1.594-.482-2.903-1.447-3.926-.965-1.024-2.201-1.535-3.71-1.535-.702 0-1.327.113-1.874.34a3.748 3.748 0 0 0-1.441 1.078c.093-1.313.265-2.305.515-2.977.461-1.219 1.235-1.828 2.32-1.828.727 0 1.27.266 1.63.797.21.328.316.629.316.902h3.328c-.117-1.344-.645-2.42-1.582-3.228-.938-.809-2.195-1.213-3.774-1.213-1.093 0-2.033.25-2.818.75-.785.5-1.42 1.16-1.904 1.98-.563.961-.942 2.164-1.137 3.61-.11.812-.164 1.867-.164 3.164 0 2.21.395 4.015 1.184 5.414 1.015 1.789 2.593 2.683 4.734 2.683Zm.047-2.718c-.758 0-1.383-.29-1.875-.868-.492-.578-.738-1.324-.738-2.238 0-1.133.328-1.953.984-2.46a2.378 2.378 0 0 1 1.512-.516c.703 0 1.297.263 1.78.79.485.528.727 1.288.727 2.28 0 .89-.212 1.615-.638 2.174-.426.558-1.01.838-1.752.838Z" fill="#075895" fill-rule="nonzero"/>
  </g>
</svg>
