<svg width="24" height="24" xmlns="http://www.w3.org/2000/svg">
  <g fill="none" fill-rule="evenodd">
    <path d="M0 0h24v24H0z"/>
    <path d="M20.944 2H4.056C3.473 2 3 2.471 3 3.053v2.726c0 .55.225 1.092.615 1.481l5.718 5.702v7.986a1.06 1.06 0 0 0 1.527.942l4.223-2.106c.358-.179.584-.543.584-.942v-5.88l5.718-5.702c.39-.39.615-.93.615-1.481V3.053C22 2.47 21.527 2 20.944 2Zm-7.06 9.606c-.202.196-.315.461-.314.738v5.613L11.427 19v-6.656c0-.277-.112-.542-.314-.738L5 5.658V4h14.998L20 5.651l-6.117 5.955Z" fill="#000" fill-rule="nonzero"/>
  </g>
</svg>
