<?xml version="1.0" encoding="UTF-8"?>
<svg width="24px" height="24px" viewBox="0 0 24 24" version="1.1" xmlns="http://www.w3.org/2000/svg" xmlns:xlink="http://www.w3.org/1999/xlink">
    <title>i-filter</title>
    <g id="Fleet-View-V_2" stroke="none" stroke-width="1" fill="none" fill-rule="evenodd">
        <g id="Icons-list" transform="translate(-560.000000, -539.000000)">
            <g id="i-filter" transform="translate(560.000000, 539.000000)">
                <rect id="ViewBox" x="0" y="0" width="24" height="24"></rect>
                <path d="M20.9444444,2 L4.05555556,2 C3.47258832,2 3,2.4712829 3,3.05263982 L3,5.77897694 C3,6.32950756 3.22483333,6.87056442 3.61538889,7.26004116 L9.33333333,12.962191 L9.33333333,20.9475167 C9.33375331,21.3121399 9.52317511,21.6506323 9.83413372,21.8424355 C10.1450923,22.0342386 10.5333872,22.0520891 10.8607222,21.8896293 L15.0829444,19.7843497 C15.4407778,19.6054009 15.6666667,19.2411875 15.6666667,18.842237 L15.6666667,12.962191 L21.3846111,7.26004116 C21.7751667,6.87056442 22,6.32950756 22,5.77897694 L22,3.05263982 C22,2.4712829 21.5274117,2 20.9444444,2 Z M13.8834535,11.606383 C13.6821502,11.8016714 13.5691801,12.0670812 13.5695922,12.343763 L13.5695922,17.9570296 L11.4271942,19 L11.4271942,12.343763 C11.4276063,12.0670812 11.3146362,11.8016714 11.1133329,11.606383 L5,5.6583229 L5,4 L19.9978576,4 L20,5.65102211 L13.8834535,11.606383 L13.8834535,11.606383 Z" id="Shape" fill="#000000" fill-rule="nonzero"></path>
            </g>
        </g>
    </g>
</svg>