<svg width="24" height="24" xmlns="http://www.w3.org/2000/svg">
  <g fill="none" fill-rule="evenodd">
    <path d="M0 0h24v24H0z"/>
    <path d="M22 11.981c.01 5.51-4.483 10.015-9.993 10.019a9.958 9.958 0 0 1-6.283-2.214.967.967 0 0 1-.074-1.436l.454-.454a.97.97 0 0 1 1.286-.08A7.39 7.39 0 0 0 12 19.419 7.415 7.415 0 0 0 19.42 12 7.415 7.415 0 0 0 12 4.58a7.394 7.394 0 0 0-5.083 2.014l2.046 2.047a.645.645 0 0 1-.456 1.1H2.645A.645.645 0 0 1 2 9.098V3.235a.645.645 0 0 1 1.101-.456l1.991 1.99A9.966 9.966 0 0 1 12 2c5.517 0 9.99 4.467 10 9.981Zm-7.918 3.341.363-.493a.974.974 0 0 0-.156-1.316l-1.503-1.236V8.2c0-.518-.397-.938-.887-.938h-.591c-.49 0-.887.42-.887.938v5.298l2.417 1.988a.855.855 0 0 0 1.244-.165Z" fill="#000" fill-rule="nonzero"/>
  </g>
</svg>
