<svg width="24" height="24" xmlns="http://www.w3.org/2000/svg">
  <g fill="none" fill-rule="evenodd">
    <path d="M0 0h24v24H0z"/>
    <path d="M11.5 17a.727.727 0 0 1-.334-.081L2 12.189 2.668 11l8.832 4.557L20.332 11 21 12.19l-9.166 4.729A.727.727 0 0 1 11.5 17Z" fill="#000" fill-rule="nonzero"/>
    <path d="M11.5 22a.727.727 0 0 1-.334-.081L2 17.189 2.668 16l8.832 4.557L20.332 16 21 17.19l-9.166 4.729A.727.727 0 0 1 11.5 22ZM12 13a.734.734 0 0 1-.339-.083L2.375 8.105A.684.684 0 0 1 2 7.5c0-.253.144-.485.375-.605l9.286-4.813a.737.737 0 0 1 .678 0l9.286 4.813c.231.12.375.352.375.605a.684.684 0 0 1-.375.605l-9.286 4.812A.734.734 0 0 1 12 13ZM4 7l8 4 8-4-8-4-8 4Z" fill="#000" fill-rule="nonzero"/>
  </g>
</svg>
