<svg width="24" height="24" xmlns="http://www.w3.org/2000/svg">
  <g fill="none" fill-rule="evenodd">
    <path d="M0 0h24v24H0z"/>
    <path d="M3.493 2a.412.412 0 0 0-.354.234L1.056 6.296a.52.52 0 0 0 0 .47.41.41 0 0 0 .36.234h4.168a.41.41 0 0 0 .36-.235.52.52 0 0 0 0-.469L3.861 2.234A.41.41 0 0 0 3.493 2ZM3.5 3 5 6H2l1.5-3ZM10 4v2h3V4h-3Zm5 0v2h8V4h-8ZM1.5 10a.5.5 0 0 0-.5.5v4a.5.5 0 0 0 .5.5h5a.5.5 0 0 0 .5-.5v-4a.5.5 0 0 0-.5-.5h-5Zm.5 1h4v3H2v-3Zm8 1v2h6v-2h-6Zm7 0v2h6v-2h-6ZM4 16c-1.651 0-3 1.349-3 3s1.349 3 3 3 3-1.349 3-3-1.349-3-3-3Zm0 1a1.993 1.993 0 0 1 2 2 1.993 1.993 0 0 1-2 2 1.993 1.993 0 0 1-2-2 1.993 1.993 0 0 1 2-2Zm6 2v2h3v-2h-3Zm5 0v2h8v-2h-8Z" fill="#000"/>
  </g>
</svg>
