<svg width="24" height="24" xmlns="http://www.w3.org/2000/svg">
  <g fill="none" fill-rule="evenodd">
    <path d="M0 0h24v24H0z"/>
    <path d="M7.2 18.3a.75.75 0 0 1 .75-.75h13.5a.75.75 0 1 1 0 1.5H7.95a.75.75 0 0 1-.75-.75Zm0-6a.75.75 0 0 1 .75-.75h13.5a.75.75 0 1 1 0 1.5H7.95a.75.75 0 0 1-.75-.75Zm0-6a.75.75 0 0 1 .75-.75h13.5a.75.75 0 1 1 0 1.5H7.95a.75.75 0 0 1-.75-.75ZM2.7 7.8a1.5 1.5 0 1 0 0-3 1.5 1.5 0 0 0 0 3Zm0 6a1.5 1.5 0 1 0 0-3 1.5 1.5 0 0 0 0 3Zm0 6a1.5 1.5 0 1 0 0-3 1.5 1.5 0 0 0 0 3Z" fill="#000" fill-rule="nonzero"/>
  </g>
</svg>
