<svg width="24" height="24" xmlns="http://www.w3.org/2000/svg">
  <g fill="none" fill-rule="evenodd">
    <path d="M0 0h24v24H0z"/>
    <path d="M11.857 2a7.857 7.857 0 0 1 7.857 7.857c0 3.333-2.618 7.382-7.857 12.143C6.62 17.239 4 13.19 4 9.857A7.857 7.857 0 0 1 11.857 2Zm7.857 14.286L22 22h-6.429v-1.429h4.319l-1.714-4.285h1.538Zm-13.89 0L4.11 20.57h4.319V22H2l2.286-5.714h1.538Zm6.033-12.857A6.429 6.429 0 0 0 5.43 9.857c0 2.637 2.11 6.074 6.428 10.192 4.319-4.118 6.429-7.555 6.429-10.192a6.429 6.429 0 0 0-6.429-6.428ZM12 6.286a4 4 0 1 1 0 8 4 4 0 0 1 0-8Zm0 2a2 2 0 1 0 0 4 2 2 0 0 0 0-4Z" fill="#000" fill-rule="nonzero"/>
  </g>
</svg>
