<svg width="24" height="24" xmlns="http://www.w3.org/2000/svg">
  <g fill="none" fill-rule="evenodd">
    <path d="M0 0h24v24H0z"/>
    <g fill="#000" fill-rule="nonzero">
      <path d="M7.636 13.429h5.819v1.428H7.636zM7.636 9.857h8.728v1.429H7.636zM7.636 17h3.637v1.429H7.636z"/>
      <path d="M18.545 4.143h-2.181v-.714c0-.79-.652-1.429-1.455-1.429H9.091c-.803 0-1.455.64-1.455 1.429v.714H5.455C4.65 4.143 4 4.783 4 5.57v15C4 21.361 4.651 22 5.455 22h13.09C19.35 22 20 21.36 20 20.571v-15c0-.789-.651-1.428-1.455-1.428Zm-9.454-.714h5.818v2.857H9.091V3.429Zm9.454 17.142H5.455v-15h2.181v2.143h8.728V5.571h2.181v15Z"/>
    </g>
  </g>
</svg>
