<?xml version="1.0" encoding="UTF-8"?>
<svg width="24px" height="24px" viewBox="0 0 24 24" version="1.1" xmlns="http://www.w3.org/2000/svg" xmlns:xlink="http://www.w3.org/1999/xlink">
    <title>i-report</title>
    <g id="Fleet-View-V_2" stroke="none" stroke-width="1" fill="none" fill-rule="evenodd">
        <g id="Icons-list" transform="translate(-256.000000, -539.000000)">
            <g id="i-report" transform="translate(256.000000, 539.000000)">
                <rect id="ViewBox" x="0" y="0" width="24" height="24"></rect>
                <g id="Group" transform="translate(4.000000, 2.000000)" fill="#000000" fill-rule="nonzero">
                    <polygon id="Path" points="3.63636364 11.4285714 9.45454545 11.4285714 9.45454545 12.8571429 3.63636364 12.8571429"></polygon>
                    <polygon id="Path" points="3.63636364 7.85714286 12.3636364 7.85714286 12.3636364 9.28571429 3.63636364 9.28571429"></polygon>
                    <polygon id="Path" points="3.63636364 15 7.27272727 15 7.27272727 16.4285714 3.63636364 16.4285714"></polygon>
                    <path d="M14.5454545,2.14285714 L12.3636364,2.14285714 L12.3636364,1.42857143 C12.3636364,0.639593215 11.7124142,0 10.9090909,0 L5.09090909,0 C4.28758582,0 3.63636364,0.639593215 3.63636364,1.42857143 L3.63636364,2.14285714 L1.45454545,2.14285714 C0.651222182,2.14285714 0,2.78245036 0,3.57142857 L0,18.5714286 C0,19.3604068 0.651222182,20 1.45454545,20 L14.5454545,20 C15.3487778,20 16,19.3604068 16,18.5714286 L16,3.57142857 C16,2.78245036 15.3487778,2.14285714 14.5454545,2.14285714 Z M5.09090909,1.42857143 L10.9090909,1.42857143 L10.9090909,4.28571429 L5.09090909,4.28571429 L5.09090909,1.42857143 Z M14.5454545,18.5714286 L1.45454545,18.5714286 L1.45454545,3.57142857 L3.63636364,3.57142857 L3.63636364,5.71428571 L12.3636364,5.71428571 L12.3636364,3.57142857 L14.5454545,3.57142857 L14.5454545,18.5714286 Z" id="Shape"></path>
                </g>
            </g>
        </g>
    </g>
</svg>