<?xml version="1.0" encoding="UTF-8"?>
<svg width="24px" height="24px" viewBox="0 0 24 24" version="1.1" xmlns="http://www.w3.org/2000/svg" xmlns:xlink="http://www.w3.org/1999/xlink">
    <title>i-trailer</title>
    <g id="Fleet-View-V_2" stroke="none" stroke-width="1" fill="none" fill-rule="evenodd">
        <g id="Icons-list" transform="translate(-177.000000, -539.000000)">
            <g id="i-trailer" transform="translate(177.000000, 539.000000)">
                <rect id="ViewBox" x="0" y="0" width="24" height="24"></rect>
                <path d="M20.8888888,6 C21.5025386,6 22,6.49746141 22,7.11111116 L22,16 L19.777,16 L19.7777778,18 L18.6666667,18 L18.666,16 L11.9922927,16.001199 C11.9019482,17.069252 11.0280413,17.9188992 9.93647981,17.9945218 L9.77777778,18 C8.6132558,18 7.65794593,17.1205427 7.56326289,16.001199 L7.54784822,16.001199 C7.45316518,17.1205427 6.49785531,18 5.33333333,18 C4.16881135,18 3.21350149,17.1205427 3.11881845,16.001199 L2,16 L2,7.11111116 C2,6.49746141 2.49746141,6 3.11111116,6 L20.8888888,6 Z M5.33333333,14.7272727 C4.71968361,14.7272727 4.22222222,15.2156894 4.22222222,15.8181818 C4.22222222,16.4206743 4.71968361,16.9090909 5.33333333,16.9090909 C5.94698306,16.9090909 6.44444444,16.4206743 6.44444444,15.8181818 C6.44444444,15.2156894 5.94698306,14.7272727 5.33333333,14.7272727 Z M9.77777778,14.7272727 C9.16412806,14.7272727 8.66666667,15.2156894 8.66666667,15.8181818 C8.66666667,16.4206743 9.16412806,16.9090909 9.77777778,16.9090909 C10.3914275,16.9090909 10.8888889,16.4206743 10.8888889,15.8181818 C10.8888889,15.2156894 10.3914275,14.7272727 9.77777778,14.7272727 Z" id="Combined-Shape" fill="#000000"></path>
            </g>
        </g>
    </g>
</svg>