<svg width="24" height="24" xmlns="http://www.w3.org/2000/svg">
  <g fill="none" fill-rule="evenodd">
    <path d="M0 0h24v24H0z"/>
    <path d="M20.889 6C21.503 6 22 6.497 22 7.111V16h-2.223v2h-1.11l-.001-2-6.674.001c-.09 1.068-.964 1.918-2.056 1.994L9.778 18c-1.165 0-2.12-.88-2.215-1.999h-.015C7.453 17.121 6.498 18 5.333 18c-1.164 0-2.12-.88-2.214-1.999L2 16V7.111C2 6.497 2.497 6 3.111 6H20.89ZM5.333 14.727c-.613 0-1.11.489-1.11 1.091 0 .603.497 1.091 1.11 1.091.614 0 1.111-.488 1.111-1.09 0-.603-.497-1.092-1.11-1.092Zm4.445 0c-.614 0-1.111.489-1.111 1.091 0 .603.497 1.091 1.11 1.091.614 0 1.112-.488 1.112-1.09 0-.603-.498-1.092-1.111-1.092Z" fill="#000"/>
  </g>
</svg>
