<svg width="24" height="24" xmlns="http://www.w3.org/2000/svg">
  <g fill="none" fill-rule="evenodd">
    <path d="M0 0h24v24H0z"/>
    <path d="M18.96 9.813 20.756 12h-4.088V9.812m.832 7.943c-.767 0-1.389-.603-1.389-1.346 0-.744.622-1.346 1.389-1.346s1.389.602 1.389 1.346c0 .743-.622 1.346-1.389 1.346m-10.903 0c-.767 0-1.388-.603-1.388-1.346 0-.744.621-1.346 1.388-1.346.768 0 1.39.602 1.39 1.346 0 .743-.622 1.346-1.39 1.346M19.273 8.5h-2.728V5H3.818C2.81 5 2 5.779 2 6.75v9.625h1.818C3.818 17.825 5.04 19 6.545 19c1.507 0 2.728-1.175 2.728-2.625h5.454c0 1.45 1.221 2.625 2.728 2.625 1.506 0 2.727-1.175 2.727-2.625H22V12l-2.727-3.5Z" fill="#000" fill-rule="nonzero"/>
  </g>
</svg>
