<svg xmlns="http://www.w3.org/2000/svg" viewBox="0 0 24 24">
  <g fill="none" fill-rule="evenodd">
    <path d="M0 0h24v24H0z"/>
    <path d="M22.278 18.517c-.225-.207-2.054-2.064-2.054-7.922a8.57 8.57 0 0 0-2.109-5.445 7.942 7.942 0 0 0-2.576-2.009.81.81 0 0 0 0-.147C15.54 1.341 14.187 0 12.52 0 10.85 0 9.498 1.34 9.498 2.994a.81.81 0 0 0 0 .147 7.942 7.942 0 0 0-2.576 2.01 8.57 8.57 0 0 0-2.109 5.444c0 5.847-1.823 7.698-2.048 7.905a1.551 1.551 0 0 0-.698 1.786c.22.716.893 1.2 1.648 1.182h5.371a.806.806 0 0 0 0 1.121A4.727 4.727 0 0 0 12.458 24c1.27 0 2.486-.509 3.372-1.41a.806.806 0 0 0 0-1.09h5.443a1.68 1.68 0 0 0 1.648-1.181 1.556 1.556 0 0 0-.643-1.802ZM12.535 1.612a1.52 1.52 0 0 1 1.285.947 6.359 6.359 0 0 0-2.57 0 1.52 1.52 0 0 1 1.285-.947Zm0 2.45c3.482 0 6.041 3.484 6.041 6.533-.03 1.835.186 3.666.643 5.444H5.851c.457-1.778.674-3.609.643-5.444 0-3.049 2.559-6.533 6.041-6.533Zm-.038 18.315a3.05 3.05 0 0 1-2.197-.898h4.339a3.045 3.045 0 0 1-2.142.898Zm-8.75-2.526a5.297 5.297 0 0 0 1.527-2.178h14.527c.315.842.84 1.592 1.527 2.178H3.748Z" fill="#64788A"/>
  </g>
</svg>
