<svg xmlns="http://www.w3.org/2000/svg" viewBox="0 0 60 60">
  <g fill="none" fill-rule="evenodd">
    <path d="M0 0h60v60H0z"/>
    <path d="M30 0C17.509 0 7.383 10.126 7.383 22.617c0 4.178.817 8.492 3.164 11.602L30 60l19.453-25.781c2.131-2.825 3.164-7.818 3.164-11.602C52.617 10.126 42.491 0 30 0Z" fill="#075895" fill-rule="nonzero"/>
    <path d="M37 18.125c0 3.313-2.4 6.074-5.625 6.876v10.936c0 1.782-3.75 3.563-3.75 3.563V25C24.4 24.2 22 21.439 22 18.126 22 14.188 25.356 11 29.5 11s7.5 3.188 7.5 7.125ZM25 15.5c0 .825 1.012 1.5 2.25 1.5s2.25-.675 2.25-1.5-1.012-1.5-2.25-1.5-2.25.675-2.25 1.5Z" fill="#FFFFFF" fill-rule="nonzero"/>
  </g>
</svg>
