<svg xmlns="http://www.w3.org/2000/svg" viewBox="0 0 24 24">
  <g fill="none" fill-rule="evenodd">
    <path d="M0 0h24v24H0z"/>
    <g fill="#64788A" fill-rule="nonzero">
      <path d="M18.286 9.857a6.429 6.429 0 0 0-12.857 0c0 2.637 2.11 6.074 6.428 10.192 4.319-4.118 6.429-7.555 6.429-10.192ZM11.857 22C6.62 17.239 4 13.19 4 9.857a7.857 7.857 0 1 1 15.714 0c0 3.333-2.618 7.382-7.857 12.143Z"/>
      <path d="M12 12.286a2 2 0 1 0 0-4 2 2 0 0 0 0 4Zm0 2a4 4 0 1 1 0-8 4 4 0 0 1 0 8Zm7.714 2L22 22h-6.429v-1.429H8.43V22H2l2.286-5.714h15.428Zm-1.538 0H5.824L4.11 20.57h15.78l-1.714-4.285Z"/>
    </g>
  </g>
</svg>
