<svg xmlns="http://www.w3.org/2000/svg" viewBox="0 0 20 20">
  <g fill="none" fill-rule="evenodd">
    <path d="M0 0h20v20H0z"/>
    <path d="M10 0a5.833 5.833 0 0 1 5.833 5.833c0 4.375-5.833 10.834-5.833 10.834S4.167 10.208 4.167 5.833A5.833 5.833 0 0 1 10 0m0 1.667a4.167 4.167 0 0 0-4.167 4.166c0 .834 0 2.5 4.167 8.092 4.167-5.592 4.167-7.258 4.167-8.092A4.167 4.167 0 0 0 10 1.667m.833 1.666V7.5H9.167V3.333h1.666ZM9.167 9.167h1.666v1.666H9.167V9.167Zm7.5 6.666c0 1.834-3 3.334-6.667 3.334s-6.667-1.5-6.667-3.334c0-1.083 1-2 2.584-2.666l.5.75c-.834.416-1.417.916-1.417 1.5 0 1.166 2.25 2.083 5 2.083s5-.917 5-2.083c0-.584-.583-1.084-1.5-1.5l.5-.75c1.667.666 2.667 1.583 2.667 2.666Z" fill="#64788A" fill-rule="nonzero"/>
  </g>
</svg>
