<svg xmlns="http://www.w3.org/2000/svg" viewBox="0 0 32 32">
  <g fill="none" fill-rule="evenodd">
    <path d="M32 0H0v32h32z"/>
    <path d="M26.667 24c.377 0 .694-.128.949-.384.256-.255.384-.572.384-.95 0-.377-.128-.694-.384-.949a1.287 1.287 0 0 0-.95-.384H12c-.378 0-.695.128-.95.384a1.29 1.29 0 0 0-.383.95c0 .377.127.694.382.949.256.256.573.384.951.384h14.667Zm0-6.667c.377 0 .694-.128.949-.384.256-.255.384-.571.384-.949s-.128-.695-.384-.95a1.29 1.29 0 0 0-.95-.383H16c-.378 0-.695.127-.95.382a1.294 1.294 0 0 0-.383.951c0 .378.127.694.382.95.256.255.573.383.951.383h10.667Zm0-6.666c.377 0 .694-.128.949-.383.256-.256.384-.573.384-.95 0-.378-.128-.695-.384-.951a1.29 1.29 0 0 0-.95-.383H12c-.378 0-.695.128-.95.383a1.294 1.294 0 0 0-.383.95c0 .378.127.695.382.951.256.255.573.383.951.383h14.667ZM8.8 16l-3.867 3.867c-.244.244-.366.555-.366.933s.122.689.366.933c.245.245.556.367.934.367.377 0 .689-.122.933-.367l4.8-4.8c.267-.266.4-.577.4-.933a1.28 1.28 0 0 0-.4-.933l-4.8-4.8c-.244-.245-.556-.367-.933-.367-.378 0-.69.122-.934.367-.244.244-.366.555-.366.933s.122.689.366.933L8.8 16Z" fill="#7E7E7E" fill-rule="nonzero"/>
  </g>
</svg>
