<svg xmlns="http://www.w3.org/2000/svg" viewBox="0 0 32 32">
  <g fill="none" fill-rule="evenodd">
    <path d="M0 0h32v32H0z"/>
    <path d="M5.333 24c-.377 0-.694-.128-.949-.384a1.287 1.287 0 0 1-.384-.95c0-.377.128-.694.384-.949.255-.256.572-.384.95-.384H20c.378 0 .695.128.95.384.256.255.383.572.383.95 0 .377-.127.694-.382.949A1.291 1.291 0 0 1 20 24H5.333Zm0-6.667c-.377 0-.694-.128-.949-.384A1.287 1.287 0 0 1 4 16c0-.378.128-.695.384-.95a1.29 1.29 0 0 1 .95-.383H16c.378 0 .695.127.95.382.256.256.383.573.383.951s-.127.694-.382.95a1.291 1.291 0 0 1-.951.383H5.333Zm0-6.666a1.29 1.29 0 0 1-.949-.383A1.291 1.291 0 0 1 4 9.334c0-.378.128-.695.384-.951A1.29 1.29 0 0 1 5.334 8H20c.378 0 .695.128.95.383.256.256.383.573.383.95 0 .378-.127.695-.382.951a1.294 1.294 0 0 1-.951.383H5.333ZM23.2 16l3.867 3.867c.244.244.366.555.366.933s-.122.689-.366.933c-.245.245-.556.367-.934.367-.377 0-.689-.122-.933-.367l-4.8-4.8A1.28 1.28 0 0 1 20 16c0-.356.133-.667.4-.933l4.8-4.8c.244-.245.556-.367.933-.367.378 0 .69.122.934.367.244.244.366.555.366.933s-.122.689-.366.933L23.2 16Z" fill="#7E7E7E" fill-rule="nonzero"/>
  </g>
</svg>
