<svg xmlns="http://www.w3.org/2000/svg" viewBox="0 0 60 60">
  <g fill="none" fill-rule="evenodd">
    <path d="M0 0h60v60H0z"/>
    <path d="M30 0C17.509 0 7.383 10.126 7.383 22.617c0 4.178.817 8.492 3.164 11.602L30 60l19.453-25.781c2.131-2.825 3.164-7.818 3.164-11.602C52.617 10.126 42.491 0 30 0Z" fill="#FFFFFF" fill-rule="nonzero"/>
    <path d="M30 0c12.491 0 22.617 10.126 22.617 22.617 0 3.784-1.033 8.777-3.164 11.602L30 60 10.547 34.219c-2.347-3.11-3.164-7.424-3.164-11.602C7.383 10.126 17.509 0 30 0Zm0 4.5c-9.94 0-18 8.06-18 18s8.06 18 18 18 18-8.06 18-18-8.06-18-18-18Zm7.313 4.095.702.562a.625.625 0 0 1 .235.488V25.22a3.126 3.126 0 0 1 2.25 3v2.876H42v3h-3v1c0 .69-.56 1.25-1.25 1.25H36.5c-.69 0-1.25-.56-1.25-1.25v-1h-10.5v1c0 .69-.56 1.25-1.25 1.25h-1.25c-.69 0-1.25-.56-1.25-1.25v-1h-3v-3h1.5V28.22c0-1.423.95-2.623 2.25-3.001V9.645c0-.19.086-.37.235-.488l.703-.562a.577.577 0 0 1 .937.45v5.914a6.253 6.253 0 0 1 5.875-4.114h1a6.253 6.253 0 0 1 5.877 4.117l-.002-5.917a.577.577 0 0 1 .938-.45Zm-4.813 15h-5c-.69 0-1.25.56-1.25 1.25v4.25c0 .69.56 1.25 1.25 1.25h5c.69 0 1.25-.56 1.25-1.25v-4.25c0-.69-.56-1.25-1.25-1.25Zm-8.5 5.25h-1.5a.75.75 0 1 0 0 1.5H24a.75.75 0 1 0 0-1.5Zm13.5 0H36a.75.75 0 1 0 0 1.5h1.5a.75.75 0 1 0 0-1.5Zm-4.875 0a.375.375 0 1 1 0 .75h-5.25a.375.375 0 1 1 0-.75h5.25Zm0-1.5a.375.375 0 1 1 0 .75h-5.25a.375.375 0 1 1 0-.75h5.25Zm0-1.5a.375.375 0 1 1 0 .75h-5.25a.375.375 0 1 1 0-.75h5.25Zm0-1.5a.375.375 0 1 1 0 .75h-5.25a.375.375 0 1 1 0-.75h5.25ZM36 16.095H24v4.5h12v-4.5Z" fill="#075895" fill-rule="nonzero"/>
  </g>
</svg>
