<svg width="40" height="40" xmlns="http://www.w3.org/2000/svg">
  <g fill="none" fill-rule="evenodd">
    <path d="M0 0h40v40H0z"/>
    <g fill="#000">
      <path d="M32 5.692C32 3.102 29.154 1 25.633 1H15.367C11.853 1 9 3.103 9 5.692v8.188l6.65 5.62L9 25.169v8.142C9 35.9 11.85 38 15.367 38h10.266C29.151 38 32 35.9 32 33.31v-8.285l-6.89-5.497L32 14.026V5.692Zm-3.29 6.886L22.129 19.5l6.58 6.973v6.947c0 1.278-1.473 2.315-3.29 2.315h-9.871c-1.817 0-3.29-1.037-3.29-2.315v-6.947l6.58-6.973-6.58-6.875V5.63c0-1.279 1.473-2.315 3.29-2.315h9.871c1.817 0 3.29 1.036 3.29 2.315v6.947Z"/>
      <path d="M25.325 34.565h-10v-4.649l5-4.601 5 4.601z"/>
      <g transform="translate(19.35 14.875)">
        <ellipse cx="1.15" cy="1.156" rx="1.15" ry="1.156"/>
        <ellipse cx="1.15" cy="4.625" rx="1.15" ry="1.156"/>
        <ellipse cx="1.15" cy="8.094" rx="1.15" ry="1.156"/>
      </g>
    </g>
  </g>
</svg>
