<svg width="40" height="40" xmlns="http://www.w3.org/2000/svg">
  <g fill="none" fill-rule="evenodd">
    <path d="M0 0h40v40H0z"/>
    <path d="m29.237 1.06.075.05 1.5 1.2a.5.5 0 0 1 .18.3L31 2.7v20.759h.5a2.5 2.5 0 0 1 2.5 2.5v5.5h2v4h-4v2a1 1 0 0 1-1 1h-3a1 1 0 0 1-1-1v-2H13v2a1 1 0 0 1-1 1H9a1 1 0 0 1-1-1v-2H4v-4h2v-5.5a2.5 2.5 0 0 1 2.5-2.5H9V2.7a.5.5 0 0 1 .188-.39l1.5-1.2a.5.5 0 0 1 .812.39v5.778A5 5 0 0 1 16 4.46h8a5 5 0 0 1 4.501 2.82L28.5 1.5a.5.5 0 0 1 .737-.44ZM24 21.46h-8a1 1 0 0 0-1 1v7a1 1 0 0 0 1 1h8a1 1 0 0 0 1-1v-7a1 1 0 0 0-1-1Zm-12 7h-2a1 1 0 1 0 0 2h2a1 1 0 0 0 0-2Zm18 0h-2a1 1 0 1 0 0 2h2a1 1 0 0 0 0-2Zm-6.5 0a.5.5 0 1 1 0 1h-7l-.09-.008a.5.5 0 0 1 .09-.992Zm0-2a.5.5 0 1 1 0 1h-7l-.09-.008a.5.5 0 0 1 .09-.992Zm0-2a.5.5 0 1 1 0 1h-7l-.09-.008a.5.5 0 0 1 .09-.992Zm0-2a.5.5 0 1 1 0 1h-7l-.09-.008a.5.5 0 0 1 .09-.992Zm4.5-11H12v6h16v-6Z" fill="#000"/>
  </g>
</svg>
