<?xml version="1.0" encoding="UTF-8"?>
<svg width="24px" height="24px" viewBox="0 0 24 24" version="1.1" xmlns="http://www.w3.org/2000/svg" xmlns:xlink="http://www.w3.org/1999/xlink">
    <title>i-:roadmap</title>
    <g id="Fleet-View-V_2" stroke="none" stroke-width="1" fill="none" fill-rule="evenodd">
        <g id="Icons-list" transform="translate(-297.000000, -554.000000)">
            <g id="i-:roadmap" transform="translate(297.000000, 554.000000)">
                <rect id="ViewBox" x="0" y="0" width="24" height="24"></rect>
                <path d="M17.3910001,2.80125 C17.391134,2.32805173 17.1388095,1.89072702 16.7290748,1.65401185 C16.31934,1.41729669 15.8144435,1.41715374 15.4045748,1.65363685 C14.994706,1.89011996 14.742134,2.32730173 14.742,2.8005 C14.742,3.53175 16.0665,6.00075 16.0665,6.00075 C16.0665,6.00075 17.3910001,3.53175 17.3910001,2.8005 L17.3910001,2.80125 Z M15.4335,2.80125 C15.425402,2.57004554 15.5440796,2.35283911 15.7430211,2.23475714 C15.9419626,2.11667517 16.1894762,2.11652845 16.3885575,2.23437449 C16.5876389,2.35222052 16.7065739,2.5692861 16.69875,2.8005 C16.6872138,3.14142293 16.4076053,3.41189039 16.0664873,3.4120927 C15.7253693,3.41229479 15.4454404,3.14215901 15.4335,2.80125 L15.4335,2.80125 Z M18.96075,13.87125 C18.54075,13.87125 18.138,13.9065 17.76825,13.9635 L8.325,10.482 C8.475,10.347 8.559,10.197 8.559,10.0395 C8.55707384,9.95647412 8.53438346,9.87525289 8.493,9.80325 L14.8005,8.12475 C15.1455,8.2275 15.56775,8.28975 16.035,8.28975 C17.175,8.28975 18.0975,7.92675 18.0975,7.47825 C18.0975,7.02825 17.175,6.666 16.035,6.666 C14.895,6.666 13.9725,7.02975 13.9725,7.47825 C13.9725,7.53075 13.9875,7.581 14.013,7.62975 L7.422,9.15 C6.86938561,8.9941052 6.29740958,8.9175892 5.72325,8.92275 C4.158,8.92275 2.88825,9.423 2.88825,10.04025 C2.88825,10.6575 4.158,11.15775 5.72325,11.15775 C6.15375,11.15775 6.55575,11.1165 6.92175,11.049 L15.91425,14.6985 C15.77175,14.8425 15.68475,14.9985 15.68475,15.16575 C15.68475,15.30825 15.75675,15.43875 15.86175,15.5655 L6.52125,19.06125 C6.40275,19.0575 6.28425,19.05375 6.1635,19.05375 C3.7335,19.05375 1.761,19.83075 1.761,20.78625 C1.761,21.744 3.7335,22.521 6.1635,22.521 C8.5935,22.521 10.566,21.7455 10.566,20.787 C10.566,20.622 10.50375,20.463 10.3935,20.31225 L18.093,16.40175 C18.3705,16.43175 18.65775,16.4505 18.95925,16.4505 C20.769,16.4505 22.23675,15.873 22.23675,15.15825 C22.23675,14.45025 20.769,13.87125 18.95925,13.87125 L18.96075,13.87125 Z" id="Shape" fill="#000000" fill-rule="nonzero"></path>
            </g>
        </g>
    </g>
</svg>