<?xml version="1.0" encoding="UTF-8"?>
<svg width="24px" height="24px" viewBox="0 0 24 24" version="1.1" xmlns="http://www.w3.org/2000/svg" xmlns:xlink="http://www.w3.org/1999/xlink">
    <title>i-marker</title>
    <g id="Fleet-View-V_2" stroke="none" stroke-width="1" fill="none" fill-rule="evenodd">
        <g id="Icons-list" transform="translate(-759.000000, -554.000000)">
            <g id="i-marker" transform="translate(759.000000, 554.000000)">
                <rect id="ViewBox" x="0" y="0" width="24" height="24"></rect>
                <path d="M12,0 C7.00356,0 2.95312,4.05042 2.95312,9.04688 C2.95312,10.71782 3.28018,12.44362 4.21874,13.6875 L12,24 L19.78124,13.6875 C20.63374,12.5577 21.04686,10.56038 21.04686,9.04688 C21.04686,4.05042 16.99644,0 12,0 Z M12,5.23974 C14.10232,5.23974 15.80712,6.94456 15.80712,9.04686 C15.80712,11.1492 14.10232,12.854 12,12.854 C9.89768,12.854 8.19288,11.1492 8.19288,9.04688 C8.19288,6.94456 9.89768,5.23974 12,5.23974 Z" id="Shape" fill="#000000" fill-rule="nonzero"></path>
            </g>
        </g>
    </g>
</svg>