<svg xmlns="http://www.w3.org/2000/svg" viewBox="0 0 24 24">
  <g fill="none" fill-rule="evenodd">
    <path d="M0 0h24v24H0z"/>
    <path d="M12 0a7 7 0 0 1 7 7c0 5.25-7 13-7 13S5 12.25 5 7a7 7 0 0 1 7-7m0 2a5 5 0 0 0-5 5c0 1 0 3 5 9.71C17 10 17 8 17 7a5 5 0 0 0-5-5m1 2v5h-2V4h2Zm-2 7h2v2h-2v-2Zm9 8c0 2.2-3.6 4-8 4s-8-1.8-8-4c0-1.3 1.2-2.4 3.1-3.2l.6.9c-1 .5-1.7 1.1-1.7 1.8 0 1.4 2.7 2.5 6 2.5s6-1.1 6-2.5c0-.7-.7-1.3-1.8-1.8l.6-.9c2 .8 3.2 1.9 3.2 3.2Z" fill="#000000" fill-rule="nonzero"/>
  </g>
</svg>
