<?xml version="1.0" encoding="UTF-8"?>
<svg width="24px" height="19px" viewBox="0 0 24 19" version="1.1" xmlns="http://www.w3.org/2000/svg" xmlns:xlink="http://www.w3.org/1999/xlink">
    <title>i-road-conditions</title>
    <g id="Fleet-View-V_2" stroke="none" stroke-width="1" fill="none" fill-rule="evenodd">
        <g id="Icons-list" transform="translate(-479.000000, -554.000000)">
            <g id="i-road-conditions" transform="translate(479.000000, 554.000000)">
                <rect id="ViewBox" x="0" y="0" width="24" height="19"></rect>
                <path d="M7.995,1.1875 L10.8,1.1875 L10.8,3.5625 C10.8,4.21933594 11.33625,4.75 12,4.75 C12.66375,4.75 13.2,4.21933594 13.2,3.5625 L13.2,1.1875 L16.005,1.1875 C17.02125,1.1875 17.925,1.82132812 18.26625,2.76947266 L19.8675,7.24375 C19.45875,7.16582031 19.035,7.125 18.6,7.125 C16.36875,7.125 14.39625,8.2234375 13.2,9.90078125 L13.2,8.3125 C13.2,7.65566406 12.66375,7.125 12,7.125 C11.33625,7.125 10.8,7.65566406 10.8,8.3125 L10.8,10.6875 C10.8,11.3443359 11.33625,11.875 12,11.875 C12.08625,11.875 12.1725,11.8638672 12.255,11.8490234 C12.09,12.4205078 12,13.0291016 12,13.65625 C12,13.8566406 12.0075,14.0533203 12.02625,14.25 L12,14.25 C11.33625,14.25 10.8,14.7806641 10.8,15.4375 L10.8,17.8125 L3.247875,17.8125 C2.116875,17.8125 1.2,16.9033203 1.2,15.7863281 C1.2,15.55625 1.23975,15.3261719 1.317375,15.1109375 L5.73375,2.76947266 C6.04125,1.82132812 6.97875,1.1875 7.995,1.1875 Z M13.2,13.65625 C13.2,10.7060547 15.61875,8.3125 18.6,8.3125 C21.58125,8.3125 24,10.7060547 24,13.65625 C24,16.6064453 21.58125,19 18.6,19 C15.61875,19 13.2,16.6064453 13.2,13.65625 Z M18.6,17.21875 C19.09875,17.21875 19.5,16.8216797 19.5,16.328125 C19.5,15.8345703 19.09875,15.4375 18.6,15.4375 C18.10125,15.4375 17.7,15.8345703 17.7,16.328125 C17.7,16.8216797 18.10125,17.21875 18.6,17.21875 Z M17.96625,10.6875 L17.96625,13.65625 C17.96625,13.9828125 18.27,14.25 18.56625,14.25 C18.93,14.25 19.16625,13.9828125 19.16625,13.65625 L19.16625,10.6875 C19.16625,10.3609375 18.93,10.09375 18.56625,10.09375 C18.27,10.09375 17.96625,10.3609375 17.96625,10.6875 Z" id="Shape" fill="#000000" fill-rule="nonzero"></path>
            </g>
        </g>
    </g>
</svg>