<svg xmlns="http://www.w3.org/2000/svg" viewBox="0 0 24 24">
  <g fill="none" fill-rule="evenodd">
    <path d="M0 0h24v24H0z"/>
    <path d="M12.414.352A.9.9 0 0 0 10.8.901v5.4a.9.9 0 0 0 1.8 0V3.545l1.386 1.803a.9.9 0 0 0 1.2.209l2.052-1.32-.991 2.978A.9.9 0 0 0 17.1 8.4h3.828l-1.464 1.464a.9.9 0 0 0-.096 1.16L21.35 13.8H19.5a.9.9 0 1 0 0 1.8h3.6a.9.9 0 0 0 .732-1.423l-2.556-3.58 2.46-2.46A.9.9 0 0 0 23.1 6.6h-4.752l1.406-4.215a.9.9 0 0 0-1.342-1.042L14.91 3.596 12.413.352ZM1.036 14.1H.9a.9.9 0 1 1 0-1.8h.922l.319-1.698A2.7 2.7 0 0 1 4.794 8.4h7.3a2.7 2.7 0 0 1 2.62 2.045l.463 1.855h.723a.9.9 0 1 1 0 1.8h-.136a3.286 3.286 0 0 1 1.036 2.4v5.7a1.8 1.8 0 0 1-3.6 0v-.6H3.6v.6a1.8 1.8 0 0 1-3.6 0v-5.7c0-.945.397-1.799 1.036-2.4Zm2.874-3.165L3.485 13.2H13.5c0-.048.003-.096.012-.144l-.545-2.174a.9.9 0 0 0-.872-.682H4.794a.9.9 0 0 0-.884.735ZM13.2 17.4a1.2 1.2 0 1 0-2.4 0 1.2 1.2 0 0 0 2.4 0Zm-8.4 1.2a1.2 1.2 0 1 0 0-2.4 1.2 1.2 0 0 0 0 2.4Z" fill="#000000" fill-rule="nonzero"/>
  </g>
</svg>
