<?xml version="1.0" encoding="UTF-8"?>
<svg width="24px" height="24px" viewBox="0 0 24 24" version="1.1" xmlns="http://www.w3.org/2000/svg" xmlns:xlink="http://www.w3.org/1999/xlink">
    <title>i-weather-radar</title>
    <g id="Fleet-View-V_2" stroke="none" stroke-width="1" fill="none" fill-rule="evenodd">
        <g id="Icons-list" transform="translate(-678.000000, -554.000000)">
            <g id="i-weather-radar" transform="translate(678.000000, 554.000000)">
                <rect id="ViewBox" x="0" y="0" width="24" height="24"></rect>
                <path d="M4.5,13.59 C5,13.87 5.14,14.5 4.87,14.96 C4.59,15.44 4,15.6 3.5,15.33 C1.95000032,14.4398959 0.995898359,12.7873913 0.999986828,11 C0.999986828,8.23857625 3.23857625,6 6,6 C7,3.65 9.3,2 12,2 C15.43,2 18.24,4.66 18.5,8.03 L19,8 C21.209139,8 23,9.790861 23,12 C23,14.209139 21.209139,16 19,16 C18.4477153,16 18,15.5522847 18,15 C18,14.4477153 18.4477153,14 19,14 C20.1045695,14 21,13.1045695 21,12 C21,10.8954305 20.1045695,10 19,10 L17,10 L17,9 C17,6.23857625 14.7614237,4 12,4 C9.5,4 7.45,5.82 7.06,8.19 C6.73,8.07 6.37,8 6,8 C4.34314575,8 3,9.34314575 3,11 C3,12.11 3.6,13.08 4.5,13.6 L4.5,13.59 M9.5,11 L12.5,11 L10.5,15 L12.5,15 L8.75,22 L9.5,17 L7,17 L9.5,11 M17.5,18.67 C17.5,19.96 16.5,21 15.25,21 C14,21 13,19.96 13,18.67 C13,17.12 15.25,14.5 15.25,14.5 C15.25,14.5 17.5,17.12 17.5,18.67 Z" id="Shape" fill="#000000" fill-rule="nonzero"></path>
            </g>
        </g>
    </g>
</svg>