<?xml version="1.0" encoding="UTF-8"?>
<svg width="24px" height="24px" viewBox="0 0 24 24" version="1.1" xmlns="http://www.w3.org/2000/svg" xmlns:xlink="http://www.w3.org/1999/xlink">
    <title>ic:round-traffic</title>
    <g id="Fleet-View-V_2" stroke="none" stroke-width="1" fill="none" fill-rule="evenodd">
        <g id="Icons-list" transform="translate(-388.000000, -554.000000)">
            <g id="ic:round-traffic" transform="translate(388.000000, 554.000000)">
                <rect id="ViewBox" x="0" y="0" width="24" height="24"></rect>
                <path d="M19.96,10.59 C19.9819241,10.443487 19.9395667,10.2946388 19.8437882,10.1816202 C19.7480097,10.0686015 19.6081248,10.0024038 19.46,10 L17,10 L17,8.86 C18.5513557,8.45925491 19.7152417,7.17347546 19.96,5.59 C19.9819241,5.44348696 19.9395667,5.29463883 19.8437882,5.18162018 C19.7480097,5.06860154 19.6081248,5.00240379 19.46,5 L17,5 L17,4 C17,3.45 16.55,3 16,3 L8,3 C7.45,3 7,3.45 7,4 L7,5 L4.54,5 C4.23,5 4,5.28 4.04,5.59 C4.28475831,7.17347546 5.44864429,8.45925491 7,8.86 L7,10 L4.54,10 C4.23,10 4,10.28 4.04,10.59 C4.28475831,12.1734755 5.44864429,13.4592549 7,13.86 L7,15 L4.54,15 C4.23,15 4,15.28 4.04,15.59 C4.28475831,17.1734755 5.44864429,18.4592549 7,18.86 L7,20 C7,20.55 7.45,21 8,21 L16,21 C16.55,21 17,20.55 17,20 L17,18.86 C18.5513557,18.4592549 19.7152417,17.1734755 19.96,15.59 C19.9819241,15.443487 19.9395667,15.2946388 19.8437882,15.1816202 C19.7480097,15.0686015 19.6081248,15.0024038 19.46,15 L17,15 L17,13.86 C18.5513557,13.4592549 19.7152417,12.1734755 19.96,10.59 Z M12,19 C11.2749923,19.0163951 10.5979117,18.6390477 10.2304881,18.0138239 C9.86306439,17.3886001 9.86287056,16.6134684 10.2299815,15.9880609 C10.5970924,15.3626535 11.2739842,14.9849675 11.999,15.001 C13.0858799,15.0250345 13.9545123,15.9128655 13.9547842,17.0000111 C13.955056,18.0871566 13.0868677,18.9754219 12,19 Z M12,14 C11.2749923,14.0163951 10.5979117,13.6390477 10.2304881,13.0138239 C9.86306439,12.3886001 9.86287056,11.6134684 10.2299815,10.9880609 C10.5970924,10.3626535 11.2739842,9.98496752 11.999,10.001 C13.0858799,10.0250345 13.9545123,10.9128655 13.9547842,12.0000111 C13.955056,13.0871566 13.0868677,13.9754219 12,14 Z M12,9 C10.8954305,9 10,8.1045695 10,7 C10,5.89 10.89,5 12,5 C13.1045695,5 14,5.8954305 14,7 C14,8.1045695 13.1045695,9 12,9 Z" id="Shape" fill="#000000" fill-rule="nonzero"></path>
            </g>
        </g>
    </g>
</svg>