<svg width="40" height="40" xmlns="http://www.w3.org/2000/svg">
  <defs>
    <clipPath id="a">
      <path d="M1014 0v1915H0V0h1014Z"/>
    </clipPath>
    <clipPath id="b">
      <path d="M25.833 23.333a5.04 5.04 0 0 1 4.75 3.334A5 5 0 0 1 27.5 33.05c-2.567.917-5.433-.45-6.35-3.05H12.2c-.533 1.417-1.617 2.55-3.033 3.05a5.028 5.028 0 0 1-6.4-3.05 5.005 5.005 0 0 1 3.066-6.383 5 5 0 0 1 6.367 3.05h8.933c.7-2 2.584-3.334 4.7-3.334Zm0 2.5a2.5 2.5 0 1 0 0 5 2.5 2.5 0 0 0 0-5Zm0-25.833c4.167 0 7.5 3.333 7.5 7.5 0 5.617-7.5 13.933-7.5 13.933s-7.5-8.316-7.5-13.933c0-4.167 3.334-7.5 7.5-7.5ZM7.5 0C11.667 0 15 3.333 15 7.5c0 5.617-7.5 13.933-7.5 13.933S0 13.117 0 7.5C0 3.333 3.333 0 7.5 0Zm16.866 5.666V6h-2v-.334h2Zm-18 0V6h-2v-.334h2Zm20.634 0h2V5h-2v.666Zm-18 0h2V5H9v.666Zm20 4h-2v.7h2v-.7Zm-18 0H9v.7h2v-.7Zm13.366 0h-2v.7h2v-.7Zm-18 0h-2v.7h2v-.7Zm18 0H27v-.3h2v.3h.667v-4H29V6h-2v-.334h-2.634V5h-2v.666h-.7v4h.7v-.3h2v.3Zm-18 0H9v-.3h2v.3h.667v-4H11V6H9v-.334H6.366V5h-2v.666h-.7v4h.7v-.3h2v.3Z"/>
    </clipPath>
  </defs>
  <g clip-path="url(#a)" transform="translate(-75 -1250)">
    <g clip-path="url(#b)" transform="translate(78.333 1253.333)">
      <path fill="#000000" d="M0 0h33.333v33.335H0V0z"/>
    </g>
  </g>
</svg>
