<svg width="24" height="24" xmlns="http://www.w3.org/2000/svg">
  <g fill="none" fill-rule="evenodd">
    <path d="M0 0h24v24H0z"/>
    <path d="M9 9H7v2h2V9Zm2 0h2v2h-2V9Zm6 0h-2v2h2V9Z" fill="#000" fill-rule="nonzero"/>
    <path d="M18.016 2.426c.05-.253.207-.426.384-.426h3.2c.128 0 .249.092.324.247a.84.84 0 0 1 .055.534l-1.424 6.344H23.6c.153 0 .292.129.36.332a.838.838 0 0 1-.044.626l-5.6 10.687c-.118.227-.33.295-.5.163-.172-.132-.255-.428-.198-.702l1.44-6.95H16.4c-.126 0-.245-.088-.32-.238a.834.834 0 0 1-.064-.524l2-10.093Z" fill="#000" fill-rule="nonzero"/>
    <path d="M3 5v16l4.8-3.6c.346-.26.767-.4 1.2-.4h10a2 2 0 0 0 2-2V5a2 2 0 0 0-2-2H5a2 2 0 0 0-2 2Zm2 12V5h14v10H8.334a1.984 1.984 0 0 0-1.2.4L5 17Z" fill="#000" fill-rule="nonzero"/>
  </g>
</svg>
