<?xml version="1.0" encoding="UTF-8"?>
<svg width="24px" height="24px" viewBox="0 0 24 24" version="1.1" xmlns="http://www.w3.org/2000/svg" xmlns:xlink="http://www.w3.org/1999/xlink">
    <title>i-admin</title>
    <g id="Style-Guide" stroke="none" stroke-width="1" fill="none" fill-rule="evenodd">
        <g id="Icons" transform="translate(-282.000000, -184.000000)">
            <g id="i-admin" transform="translate(282.000000, 184.000000)">
                <rect id="ViewBox" x="0" y="0" width="24" height="24"></rect>
                <path d="M11,15 L11,17 C7.6862915,17 5,19.6862915 5,23 L3,23 C3,18.581722 6.581722,15 11,15 L11,15 Z M11,14 C7.685,14 5,11.315 5,8 C5,4.685 7.685,2 11,2 C14.315,2 17,4.685 17,8 C17,11.315 14.315,14 11,14 Z M11,12 C13.21,12 15,10.21 15,8 C15,5.79 13.21,4 11,4 C8.79,4 7,5.79 7,8 C7,10.21 8.79,12 11,12 Z M20,18 L21,18 L21,23 L13,23 L13,18 L14,18 L14,17 C14,15.3431458 15.3431458,14 17,14 C18.6568542,14 20,15.3431458 20,17 L20,18 Z M18,18 L18,17 C18,16.4477153 17.5522847,16 17,16 C16.4477153,16 16,16.4477153 16,17 L16,18 L18,18 Z" id="Shape" fill="#64788A" fill-rule="nonzero"></path>
            </g>
        </g>
    </g>
</svg>