<?xml version="1.0" encoding="UTF-8"?>
<svg width="24px" height="24px" viewBox="0 0 24 24" version="1.1" xmlns="http://www.w3.org/2000/svg" xmlns:xlink="http://www.w3.org/1999/xlink">
    <title>i-alerts</title>
    <g id="Style-Guide" stroke="none" stroke-width="1" fill="none" fill-rule="evenodd">
        <g id="Icons" transform="translate(-230.000000, -184.000000)">
            <g id="i-alerts" transform="translate(230.000000, 184.000000)">
                <rect id="ViewBox" x="0" y="0" width="24" height="24"></rect>
                <path d="M22.2780796,18.516711 C22.0529022,18.3098203 20.2240218,16.4532492 20.2240218,10.5949778 C20.1810749,8.59224771 19.4353042,6.66698383 18.1150426,5.15048767 C17.4064649,4.31078493 16.5292347,3.62658468 15.5392321,3.14147081 C15.5436898,3.09257003 15.5436898,3.04337036 15.5392321,2.99446958 C15.5392321,1.3406697 14.1868307,0 12.5185589,0 C10.8502871,0 9.4978856,1.3406697 9.4978856,2.99446958 C9.49342792,3.04337036 9.49342792,3.09257003 9.4978856,3.14147081 C8.507883,3.62658468 7.63065284,4.31078493 6.92207511,5.15048767 C5.60181356,6.66698383 4.85604283,8.59224771 4.81309595,10.5949778 C4.81309595,16.4423602 2.98970772,18.2934869 2.76453026,18.5003775 C2.14663132,18.8668067 1.85917038,19.6027852 2.06702934,20.2861703 C2.2863318,21.0020667 2.96015323,21.4852361 3.71466931,21.4676246 L9.0859756,21.4676246 C8.78329426,21.7812735 8.78329426,22.2755407 9.0859756,22.5891896 C9.97199135,23.4912103 11.1881189,24 12.4581454,24 C13.7281719,24 14.9442995,23.4912103 15.8303152,22.5891896 C16.1125513,22.2801413 16.1125513,21.8093399 15.8303152,21.5002916 L21.2730192,21.5002916 C22.0275353,21.5179031 22.7013567,21.0347336 22.9206592,20.3188372 C23.1452757,19.64316 22.8811327,18.9023661 22.2780796,18.516711 L22.2780796,18.516711 Z M12.5350353,1.61156908 C13.1099905,1.66017591 13.6077134,2.02706696 13.8201944,2.55891037 C12.9725107,2.38395038 12.0975598,2.38395038 11.2498761,2.55891037 C11.4623572,2.02706696 11.96008,1.66017591 12.5350353,1.61156908 L12.5350353,1.61156908 Z M12.5350353,4.06158964 C16.0170477,4.06158964 18.5763818,7.54606333 18.5763818,10.5949778 C18.5455047,12.4300545 18.7616022,14.2610194 19.2189614,16.039468 L5.85110913,16.039468 C6.30846837,14.2610194 6.52456587,12.4300545 6.49368872,10.5949778 C6.49368872,7.54606333 9.05302281,4.06158964 12.5350353,4.06158964 Z M12.4965903,22.3768545 C11.6716191,22.3856274 10.8785454,22.0613224 10.299737,21.4785136 L14.6385223,21.4785136 C14.0734104,22.0483376 13.3026488,22.3716003 12.4965903,22.3768545 L12.4965903,22.3768545 Z M3.74762211,19.8506111 C4.43459615,19.2647552 4.95999857,18.5153384 5.27443514,17.672815 L19.8011275,17.672815 C20.1155641,18.5153384 20.6409665,19.2647552 21.3279406,19.8506111 L3.74762211,19.8506111 Z" id="Shape" fill="#64788A"></path>
            </g>
        </g>
    </g>
</svg>