<?xml version="1.0" encoding="UTF-8"?>
<svg width="20px" height="20px" viewBox="0 0 20 20" version="1.1" xmlns="http://www.w3.org/2000/svg" xmlns:xlink="http://www.w3.org/1999/xlink">
    <title>i-map-alerts</title>
    <g id="Style-Guide" stroke="none" stroke-width="1" fill="none" fill-rule="evenodd">
        <g id="Icons" transform="translate(-118.000000, -345.000000)">
            <g id="i-map-alerts" transform="translate(118.000000, 345.000000)">
                <rect id="ViewBox" x="0" y="0" width="20" height="20"></rect>
                <path d="M10,0 C13.221661,0 15.8333333,2.61167229 15.8333333,5.83333333 C15.8333333,10.2083333 10,16.6666667 10,16.6666667 C10,16.6666667 4.16666667,10.2083333 4.16666667,5.83333333 C4.16666667,2.61167229 6.77833896,0 10,0 M10,1.66666667 C7.69881354,1.66666667 5.83333333,3.53214688 5.83333333,5.83333333 C5.83333333,6.66666667 5.83333333,8.33333333 10,13.925 C14.1666667,8.33333333 14.1666667,6.66666667 14.1666667,5.83333333 C14.1666667,3.53214688 12.3011865,1.66666667 10,1.66666667 M10.8333333,3.33333333 L10.8333333,7.5 L9.16666667,7.5 L9.16666667,3.33333333 L10.8333333,3.33333333 Z M9.16666667,9.16666667 L10.8333333,9.16666667 L10.8333333,10.8333333 L9.16666667,10.8333333 L9.16666667,9.16666667 Z M16.6666667,15.8333333 C16.6666667,17.6666667 13.6666667,19.1666667 10,19.1666667 C6.33333333,19.1666667 3.33333333,17.6666667 3.33333333,15.8333333 C3.33333333,14.75 4.33333333,13.8333333 5.91666667,13.1666667 L6.41666667,13.9166667 C5.58333333,14.3333333 5,14.8333333 5,15.4166667 C5,16.5833333 7.25,17.5 10,17.5 C12.75,17.5 15,16.5833333 15,15.4166667 C15,14.8333333 14.4166667,14.3333333 13.5,13.9166667 L14,13.1666667 C15.6666667,13.8333333 16.6666667,14.75 16.6666667,15.8333333 Z" id="Shape" fill="#64788A" fill-rule="nonzero"></path>
            </g>
        </g>
    </g>
</svg>