<?xml version="1.0" encoding="UTF-8"?>
<svg width="61px" height="61px" viewBox="0 0 61 61" version="1.1" xmlns="http://www.w3.org/2000/svg" xmlns:xlink="http://www.w3.org/1999/xlink">
    <title>i-map-marker-stop</title>
    <g id="Style-Guide" stroke="none" stroke-width="1" fill="none" fill-rule="evenodd">
        <g id="Icons" transform="translate(-387.000000, -234.000000)">
            <g id="i-map-marker-stop" transform="translate(387.683621, 234.108537)">
                <rect id="ViewBox" x="0" y="0" width="60" height="60"></rect>
                <path d="M30,0 C17.5089,0 7.3828,10.12605 7.3828,22.6172 C7.3828,26.79455 8.20045,31.10905 10.54685,34.21875 L30,60 L49.4531,34.21875 C51.58435,31.39425 52.61715,26.40095 52.61715,22.6172 C52.61715,10.12605 42.4911,0 30,0 Z" id="Path" fill="#1976D2" fill-rule="nonzero"></path>
                <path d="M30,4.5 C39.939734,4.5 48,12.5603394 48,22.4999527 C48,32.4397551 39.939734,40.5 30,40.5 C20.060266,40.5 12,32.4397551 12,22.5000473 C12,12.5603394 20.060266,4.5 30,4.5 Z" id="Path" fill="#1976D2" fill-rule="nonzero"></path>
                <text id="1" font-family="Helvetica-Bold, Helvetica" font-size="24" font-weight="bold" fill="#FFFFFF">
                    <tspan x="23.3261719" y="31">1</tspan>
                </text>
            </g>
        </g>
    </g>
</svg>