<?xml version="1.0" encoding="UTF-8"?>
<svg width="20px" height="20px" viewBox="0 0 20 20" version="1.1" xmlns="http://www.w3.org/2000/svg" xmlns:xlink="http://www.w3.org/1999/xlink">
    <title>i-plus</title>
    <g id="Style-Guide" stroke="none" stroke-width="1" fill="none" fill-rule="evenodd">
        <g id="Icons" transform="translate(-165.000000, -345.000000)">
            <g id="i-plus" transform="translate(165.000000, 345.000000)">
                <rect id="ViewBox" x="0" y="0" width="20" height="20"></rect>
                <g id="Shape" transform="translate(3.333333, 3.333333)" fill="#64788A" fill-rule="nonzero">
                    <path d="M6.66666667,0 C7.12690396,0 7.5,0.373096042 7.5,0.833333333 L7.5,5.83333333 L12.5,5.83333333 C12.9602373,5.83333333 13.3333333,6.20642938 13.3333333,6.66666667 C13.3333333,7.12690396 12.9602373,7.5 12.5,7.5 L7.5,7.5 L7.5,12.5 C7.5,12.9602373 7.12690396,13.3333333 6.66666667,13.3333333 C6.20642938,13.3333333 5.83333333,12.9602373 5.83333333,12.5 L5.83333333,7.5 L0.833333333,7.5 C0.373096042,7.5 0,7.12690396 0,6.66666667 C0,6.20642938 0.373096042,5.83333333 0.833333333,5.83333333 L5.83333333,5.83333333 L5.83333333,0.833333333 C5.83333333,0.373096042 6.20642938,0 6.66666667,0 Z" id="Path"></path>
                </g>
            </g>
        </g>
    </g>
</svg>