<?xml version="1.0" encoding="UTF-8"?>
<svg width="60px" height="60px" viewBox="0 0 60 60" version="1.1" xmlns="http://www.w3.org/2000/svg" xmlns:xlink="http://www.w3.org/1999/xlink">
    <title>i-tractor-marker</title>
    <g id="Style-Guide" stroke="none" stroke-width="1" fill="none" fill-rule="evenodd">
        <g id="Icons" transform="translate(-160.000000, -234.000000)">
            <g id="i-tractor-marker" transform="translate(160.000000, 234.000000)">
                <rect id="ViewBox" x="0" y="0" width="60" height="60"></rect>
                <path d="M30,0 C17.5089,0 7.3828,10.12605 7.3828,22.6172 C7.3828,26.79455 8.20045,31.10905 10.54685,34.21875 L30,60 L49.4531,34.21875 C51.58435,31.39425 52.61715,26.40095 52.61715,22.6172 C52.61715,10.12605 42.4911,0 30,0 Z" id="Path" fill="#1976D2" fill-rule="nonzero"></path>
                <path d="M30,4.5 C39.939734,4.5 48,12.5603394 48,22.4999527 C48,32.4397551 39.939734,40.5 30,40.5 C20.060266,40.5 12,32.4397551 12,22.5000473 C12,12.5603394 20.060266,4.5 30,4.5 Z" id="Path" fill="#FFFFFF" fill-rule="nonzero"></path>
                <g id="i-tractor-front" transform="translate(15.000000, 7.500000)">
                    <rect id="ViewBox" x="0" y="0" width="30" height="30"></rect>
                    <path d="M22.3125,1.09477949 L23.0154344,1.65712701 C23.1636939,1.77573463 23.25,1.95530519 23.25,2.14517002 L23.2503163,17.7190254 C24.5501642,18.0975483 25.5,19.2977409 25.5,20.7197795 L25.5,23.5947795 L27,23.5947795 L27,26.5947795 L24,26.5947795 L24,27.5947795 C24,28.2851354 23.4403559,28.8447795 22.75,28.8447795 L21.5,28.8447795 C20.8096441,28.8447795 20.25,28.2851354 20.25,27.5947795 L20.25,26.5947795 L9.75,26.5947795 L9.75,27.5947795 C9.75,28.2851354 9.19035594,28.8447795 8.5,28.8447795 L7.25,28.8447795 C6.55964406,28.8447795 6,28.2851354 6,27.5947795 L6,26.5947795 L3,26.5947795 L3,23.5947795 L4.5,23.5947795 L4.5,20.7197795 C4.5,19.2973712 5.45032967,18.0969244 6.75069748,17.7187304 L6.75,2.14517002 C6.75,1.95530519 6.83630607,1.77573463 6.9845656,1.65712701 L7.6875,1.09477949 C7.93635166,0.895698161 8.2994731,0.936044987 8.49855443,1.18489665 C8.58040658,1.28721184 8.625,1.41433791 8.625,1.54536529 L8.62453185,7.45874561 C9.49722692,5.05882974 11.7984445,3.34477949 14.5,3.34477949 L15.5,3.34477949 C18.202678,3.34477949 20.5046854,5.06025446 21.3765553,7.46173755 L21.375,1.54536529 C21.375,1.41433791 21.4195934,1.28721184 21.5014456,1.18489665 C21.7005269,0.936044987 22.0636483,0.895698161 22.3125,1.09477949 Z M17.5,16.0947795 L12.5,16.0947795 C11.8096441,16.0947795 11.25,16.6544236 11.25,17.3447795 L11.25,21.5947795 C11.25,22.2851354 11.8096441,22.8447795 12.5,22.8447795 L17.5,22.8447795 C18.1903559,22.8447795 18.75,22.2851354 18.75,21.5947795 L18.75,17.3447795 C18.75,16.6544236 18.1903559,16.0947795 17.5,16.0947795 Z M9,21.3447795 L7.5,21.3447795 C7.08578644,21.3447795 6.75,21.6805659 6.75,22.0947795 C6.75,22.5089931 7.08578644,22.8447795 7.5,22.8447795 L9,22.8447795 C9.41421356,22.8447795 9.75,22.5089931 9.75,22.0947795 C9.75,21.6805659 9.41421356,21.3447795 9,21.3447795 Z M22.5,21.3447795 L21,21.3447795 C20.5857864,21.3447795 20.25,21.6805659 20.25,22.0947795 C20.25,22.5089931 20.5857864,22.8447795 21,22.8447795 L22.5,22.8447795 C22.9142136,22.8447795 23.25,22.5089931 23.25,22.0947795 C23.25,21.6805659 22.9142136,21.3447795 22.5,21.3447795 Z M17.625,21.3447795 C17.8321068,21.3447795 18,21.5126727 18,21.7197795 C18,21.9268863 17.8321068,22.0947795 17.625,22.0947795 L12.375,22.0947795 C12.1678932,22.0947795 12,21.9268863 12,21.7197795 C12,21.5126727 12.1678932,21.3447795 12.375,21.3447795 Z M17.625,19.8447795 C17.8321068,19.8447795 18,20.0126727 18,20.2197795 C18,20.4268863 17.8321068,20.5947795 17.625,20.5947795 L12.375,20.5947795 C12.1678932,20.5947795 12,20.4268863 12,20.2197795 C12,20.0126727 12.1678932,19.8447795 12.375,19.8447795 Z M17.625,18.3447795 C17.8321068,18.3447795 18,18.5126727 18,18.7197795 C18,18.9268863 17.8321068,19.0947795 17.625,19.0947795 L12.375,19.0947795 C12.1678932,19.0947795 12,18.9268863 12,18.7197795 C12,18.5126727 12.1678932,18.3447795 12.375,18.3447795 Z M17.625,16.8447795 C17.8321068,16.8447795 18,17.0126727 18,17.2197795 C18,17.4268863 17.8321068,17.5947795 17.625,17.5947795 L12.375,17.5947795 C12.1678932,17.5947795 12,17.4268863 12,17.2197795 C12,17.0126727 12.1678932,16.8447795 12.375,16.8447795 Z M21,8.59477949 L9,8.59477949 L9,13.0947795 L21,13.0947795 L21,8.59477949 Z" id="Shape-Tractor-front-Copy-4" fill="#1976D2"></path>
                </g>
            </g>
        </g>
    </g>
</svg>