<?xml version="1.0" encoding="UTF-8"?>
<svg width="60px" height="60px" viewBox="0 0 60 60" version="1.1" xmlns="http://www.w3.org/2000/svg" xmlns:xlink="http://www.w3.org/1999/xlink">
    <title>i-warehouse</title>
    <g id="Style-Guide" stroke="none" stroke-width="1" fill="none" fill-rule="evenodd">
        <g id="Icons" transform="translate(-46.000000, -234.000000)">
            <g id="i-warehouse" transform="translate(46.000000, 234.000000)">
                <rect id="Rectangle" fill="#FFFFFF" x="5" y="20" width="50" height="33"></rect>
                <rect id="ViewBox" x="0" y="0" width="60" height="60"></rect>
                <path d="M5,53 L5,18 L30,8 L55,18 L55,53 L40,53 L40,33 L20,33 L20,53 L5,53 Z M22.5,53 L22.5,48 L27.5,48 L27.5,53 L22.5,53 Z M27.5,45.5 L27.5,40.5 L32.5,40.5 L32.5,45.5 L27.5,45.5 Z M32.5,53 L32.5,48 L37.5,48 L37.5,53 L32.5,53 Z" id="Shape" fill="#1976D2" fill-rule="nonzero"></path>
            </g>
        </g>
    </g>
</svg>