<?xml version="1.0" encoding="UTF-8"?>
<svg width="24px" height="24px" viewBox="0 0 24 24" version="1.1" xmlns="http://www.w3.org/2000/svg" xmlns:xlink="http://www.w3.org/1999/xlink">
    <title>icon-map</title>
    <g id="Style-Guide" stroke="none" stroke-width="1" fill="none" fill-rule="evenodd">
        <g id="Icons" transform="translate(-116.000000, -184.000000)">
            <g id="icon-map" transform="translate(116.000000, 184.000000)">
                <rect id="ViewBox" x="0" y="0" width="24" height="24"></rect>
                <g id="Shape" transform="translate(2.000000, 2.000000)" fill="#64788A" fill-rule="nonzero">
                    <path d="M16.2857143,7.85714286 C16.2857143,4.30674089 13.4075448,1.42857143 9.85714286,1.42857143 C6.30674089,1.42857143 3.42857143,4.30674089 3.42857143,7.85714286 C3.42857143,10.4942857 5.53857143,13.9314286 9.85714286,18.0485714 C14.1757143,13.9314286 16.2857143,10.4942857 16.2857143,7.85714286 Z M9.85714286,20 C4.61857143,15.2385714 2,11.19 2,7.85714286 C2,3.51776268 5.51776268,0 9.85714286,0 C14.196523,0 17.7142857,3.51776268 17.7142857,7.85714286 C17.7142857,11.19 15.0957143,15.2385714 9.85714286,20 Z"></path>
                    <path d="M10,10.2857143 C11.1045695,10.2857143 12,9.39028379 12,8.28571429 C12,7.18114479 11.1045695,6.28571429 10,6.28571429 C8.8954305,6.28571429 8,7.18114479 8,8.28571429 C8,9.39028379 8.8954305,10.2857143 10,10.2857143 Z M10,12.2857143 C7.790861,12.2857143 6,10.4948533 6,8.28571429 C6,6.07657529 7.790861,4.28571429 10,4.28571429 C12.209139,4.28571429 14,6.07657529 14,8.28571429 C14,10.4948533 12.209139,12.2857143 10,12.2857143 Z M17.7142857,14.2857143 L20,20 L13.5714286,20 L13.5714286,18.5714286 L6.42857143,18.5714286 L6.42857143,20 L0,20 L2.28571429,14.2857143 L17.7142857,14.2857143 Z M16.1757143,14.2857143 L3.82428571,14.2857143 L2.11,18.5714286 L17.89,18.5714286 L16.1757143,14.2857143 Z"></path>
                </g>
            </g>
        </g>
    </g>
</svg>