<svg width="48" height="24" xmlns="http://www.w3.org/2000/svg">
  <defs>
    <clipPath id="a">
      <path d="M1014 0v1915H0V0h1014Z"/>
    </clipPath>
    <clipPath id="b">
      <path d="M2.008 0v5H0V0h2.008Z"/>
    </clipPath>
    <clipPath id="c">
      <path d="M2.008 0v5H0V0h2.008Z"/>
    </clipPath>
    <clipPath id="d">
      <path d="M20.084 0v48H0V0h20.084Z"/>
    </clipPath>
  </defs>
  <g clip-path="url(#a)" transform="translate(-235 -1141)">
    <g clip-path="url(#b)" transform="rotate(-90 693.004 450.004)">
      <path fill="#444" d="M0 0h2.008v5H0V0z"/>
    </g>
    <g clip-path="url(#c)" transform="rotate(-90 704 461)">
      <path fill="#444" d="M0 0h2.008v5H0V0z"/>
    </g>
    <g clip-path="url(#b)" transform="rotate(-90 703.504 439.504)">
      <path fill="#444" d="M0 0h2.008v5H0V0z"/>
    </g>
    <g clip-path="url(#c)" transform="rotate(-90 714.5 450.5)">
      <path fill="#444" d="M0 0h2.008v5H0V0z"/>
    </g>
    <g clip-path="url(#b)" transform="rotate(-90 696.4 446.608)">
      <path fill="#444" d="M0 0h2.008v5H0V0z"/>
    </g>
    <g clip-path="url(#c)" transform="rotate(-90 707.397 457.603)">
      <path fill="#444" d="M0 0h2.008v5H0V0z"/>
    </g>
    <g clip-path="url(#b)" transform="rotate(-90 706.9 436.108)">
      <path fill="#444" d="M0 0h2.008v5H0V0z"/>
    </g>
    <g clip-path="url(#c)" transform="rotate(-90 717.897 447.103)">
      <path fill="#444" d="M0 0h2.008v5H0V0z"/>
    </g>
    <g>
      <g clip-path="url(#d)" transform="rotate(90 -429.954 712.954)">
        <path fill="#EAEFF3" d="M0 0h20.084v48H0V0z"/>
        <path stroke="#065895" stroke-width="1.528" fill="none" stroke-miterlimit="5" d="M0 0h20.084v48H0V0z"/>
      </g>
    </g>
    <g>
      <text transform="translate(245.345 1157.016)" font-family="Helvetica-Bold, Helvetica" font-size="11.586" font-weight="bold" fill="#065895" text-anchor="left">GPS</text>
    </g>
  </g>
</svg>
