<svg width="40" height="40" xmlns="http://www.w3.org/2000/svg">
  <defs>
    <clipPath id="a">
      <path d="M1014 0v1220H0V0h1014Z"/>
    </clipPath>
    <clipPath id="b">
      <path d="M15 0c8.284 0 15 6.75 15 15.078 0 2.523-.685 5.852-2.098 7.735L15 40 2.098 22.812C.542 20.74 0 17.864 0 15.079 0 6.751 6.716 0 15 0Z"/>
    </clipPath>
    <clipPath id="c">
      <path d="M14.767.077a3.489 3.489 0 1 1-1.62 5.993l-6.15 3.515a3.316 3.316 0 0 1-.107.768l6.26 3.577a3.52 3.52 0 1 1-1.026 1.717l-6.26-3.577a3.478 3.478 0 0 1-2.357.93A3.5 3.5 0 1 1 6.44 7.6l5.684-3.247a3.508 3.508 0 0 1-.117-.853 3.489 3.489 0 0 1 2.76-3.423Z"/>
    </clipPath>
  </defs>
  <g clip-path="url(#a)" transform="translate(-224 -911)">
    <g clip-path="url(#b)" transform="translate(229 911)">
      <path d="M0 0h30v40H0V0z"/>
    </g>
    <g clip-path="url(#c)" transform="translate(233.993 916)">
      <path fill="#FFF" d="M0 0h19.054v20.04H0V0z"/>
    </g>
  </g>
</svg>
