<svg width="18" height="17" xmlns="http://www.w3.org/2000/svg">
  <g fill="none" fill-rule="evenodd">
    <path d="M0 0h18v16.689H0z"/>
    <path d="M9 0C5.253 0 2.215 2.817 2.215 6.291c0 1.162.245 2.362.95 3.227L9 16.69l5.836-7.17c.64-.786.95-2.175.95-3.228C15.785 2.817 12.746 0 9 0Z" fill="#000" fill-rule="nonzero"/>
    <path d="M4.5 2.086h9v8.345h-9z"/>
    <path d="M12.046 5.488v2.825c0 .141-.124.256-.277.256-.153 0-.277-.115-.277-.256V7.286c0-.426-.372-.77-.83-.77H9.83V3.433c0-.283-.248-.513-.554-.513H5.954c-.306 0-.554.23-.554.513v5.649c0 .283.248.513.554.513h3.323c.306 0 .554-.23.554-.513V7.029h.83c.153 0 .277.115.277.257v1.027c0 .425.372.77.831.77.46 0 .831-.345.831-.77V4.975c0-.284-.248-.514-.554-.514v-.775c-.003-.14-.126-.252-.277-.252a.293.293 0 0 0-.204.086.25.25 0 0 0-.073.197v1.258c0 .283.248.513.554.513.306 0 .554-.23.554-.513 0-.284-.248-.514-.554-.514m-2.77 1.284c0 .142-.123.257-.276.257H6.23c-.152 0-.276-.115-.276-.257v-1.54c0-.142.124-.257.277-.257H9c.153 0 .277.115.277.256v1.541Z" fill="#FFF" fill-rule="nonzero"/>
  </g>
</svg>
