<svg width="40" height="40" xmlns="http://www.w3.org/2000/svg">
  <g fill="none" fill-rule="evenodd">
    <path d="M0 0h40v40H0z"/>
    <path d="M20 0C11.673 0 4.922 6.75 4.922 15.078c0 2.785.545 5.661 2.11 7.735L20 40l12.969-17.188c1.42-1.883 2.11-5.211 2.11-7.734C35.078 6.751 28.326 0 20 0Z" fill="#000" fill-rule="nonzero"/>
    <path d="M10 5h20v20H10z"/>
    <path d="M26.77 13.154v6.77a.615.615 0 1 1-1.232 0v-2.462c0-1.02-.826-1.847-1.846-1.847h-1.846V8.231c0-.68-.55-1.231-1.23-1.231H13.23C12.55 7 12 7.551 12 8.23v13.54c0 .679.551 1.23 1.23 1.23h7.385c.68 0 1.231-.551 1.231-1.23v-4.924h1.846c.34 0 .616.276.616.616v2.461a1.846 1.846 0 0 0 3.692 0v-8c0-.68-.551-1.23-1.23-1.23v-1.86a.615.615 0 0 0-.616-.602.628.628 0 0 0-.616.677v3.015a1.23 1.23 0 1 0 1.231-1.23m-6.154 3.076c0 .34-.275.616-.615.616h-6.154a.615.615 0 0 1-.615-.616v-3.692c0-.34.275-.615.615-.615H20c.34 0 .615.275.615.615v3.692Z" fill="#FFF" fill-rule="nonzero"/>
  </g>
</svg>
