<svg width="40" height="40" xmlns="http://www.w3.org/2000/svg">
  <g fill="none" fill-rule="evenodd">
    <path d="M0 0h40v40H0z"/>
    <path d="M33.538 16.308v13.538a1.23 1.23 0 1 1-2.461 0v-4.923a3.692 3.692 0 0 0-3.692-3.692h-3.693V6.46A2.462 2.462 0 0 0 21.231 4H6.46A2.462 2.462 0 0 0 4 6.462v27.076A2.462 2.462 0 0 0 6.462 36H21.23a2.462 2.462 0 0 0 2.461-2.462v-9.846h3.693c.68 0 1.23.551 1.23 1.231v4.923a3.692 3.692 0 0 0 7.385 0v-16a2.462 2.462 0 0 0-2.462-2.461V7.668a1.23 1.23 0 0 0-1.23-1.206 1.255 1.255 0 0 0-1.231 1.353v6.031a2.462 2.462 0 1 0 2.461-2.461m-12.307 6.153c0 .68-.551 1.231-1.231 1.231H7.692a1.23 1.23 0 0 1-1.23-1.23v-7.385c0-.68.55-1.23 1.23-1.23H20c.68 0 1.23.55 1.23 1.23v7.384Z" fill="#000" fill-rule="nonzero"/>
  </g>
</svg>
