<svg width="24" height="24" xmlns="http://www.w3.org/2000/svg">
  <g fill="none" fill-rule="evenodd">
    <path d="M0 0h24v24H0z"/>
    <path d="M19.538 9.308v8.038a.73.73 0 1 1-1.461 0v-2.923c0-1.21-.982-2.192-2.192-2.192h-2.193V3.46c0-.807-.654-1.461-1.461-1.461H3.46C2.655 2 2 2.654 2 3.462v16.076C2 20.346 2.654 21 3.462 21h8.769c.807 0 1.461-.654 1.461-1.462v-5.846h2.193a.73.73 0 0 1 .73.731v2.923a2.192 2.192 0 0 0 4.385 0v-9.5c0-.807-.654-1.461-1.462-1.461V4.178a.73.73 0 0 0-.73-.716.745.745 0 0 0-.731.803v3.581a1.462 1.462 0 1 0 1.461-1.461M12 10.25a.75.75 0 0 1-.75.75h-7.5a.75.75 0 0 1-.75-.75v-4.5A.75.75 0 0 1 3.75 5h7.5a.75.75 0 0 1 .75.75v4.5Z" fill="#000" fill-rule="nonzero"/>
  </g>
</svg>
