<svg width="24" height="24" xmlns="http://www.w3.org/2000/svg">
  <g fill="none" fill-rule="evenodd">
    <path d="M0 0h24v24H0z"/>
    <path d="m3.369 2.4 2.954 1.707-.161 1.107 6.761 6.758.485-.484a.72.72 0 0 1 1.038 0l.277.276c.221.222.221.674 0 .97l.97.875c.442-.147.969 0 1.338.37l3.97 3.99c.812.812.82 2.136-.14 3.022a2.096 2.096 0 0 1-2.953 0l-3.992-3.967c-.37-.37-.444-.895-.37-1.338l-.877-.876c-.221.295-.673.295-.969 0l-.3-.3a.718.718 0 0 1 0-1.039l.577-.553-6.761-6.759-1.108.162L2.4 3.37l.969-.968Zm12 12.594c-.092 0-.202.019-.276.092a.372.372 0 0 0 0 .53l4.36 4.36a.375.375 0 0 0 .532 0 .372.372 0 0 0 0-.53l-4.362-4.36a.331.331 0 0 0-.253-.092Zm2.4-12.571c-1.456-.121-3.388.844-4.292 1.683-1.112 1.112-.93 2.565-.047 3.968l-1.568 1.569 1.108 1.245a1.553 1.553 0 0 1 2.053 0l.3.3.07.07.646-.647c1.335.785 2.725.898 3.784-.161 1.034-.96 2.155-3.326 1.638-4.729l-2.076 2.145a.72.72 0 0 1-1.039 0L16.2 5.721a.719.719 0 0 1 0-1.037l2.147-2.145a2.278 2.278 0 0 0-.577-.116Zm-8.122 9.203-2.678 2.676a3.886 3.886 0 0 0-.877-.093A3.656 3.656 0 0 0 2.4 17.9a3.656 3.656 0 0 0 3.692 3.691 3.656 3.656 0 0 0 3.693-3.69c0-.379-.06-.743-.162-1.084l1.57-1.569-.231-.3a1.507 1.507 0 0 1-.07-2.076l-1.246-1.245ZM6.6 15.985l1.408 1.407-.508 1.914-1.915.508-1.408-1.408.508-1.914 1.915-.507Z" fill="#000" fill-rule="nonzero"/>
  </g>
</svg>
