<svg width="18" height="17" xmlns="http://www.w3.org/2000/svg">
  <g fill="none" fill-rule="evenodd">
    <path d="M0 0h18v16.865H0z"/>
    <path d="M9.785 0C6.038 0 3 2.846 3 6.357c0 1.174.245 2.387.95 3.261l5.835 7.247 5.836-7.247c.64-.794.95-2.197.95-3.26C16.57 2.845 13.531 0 9.784 0Z" fill="#000" fill-rule="nonzero"/>
    <path d="M5 1.97h9v8.86H5z"/>
    <path d="m6.263 2.855 1.108.63-.06.41 2.535 2.494.182-.178a.272.272 0 0 1 .39 0l.103.102c.083.082.083.248 0 .357l.364.324a.507.507 0 0 1 .502.136l1.488 1.474c.305.3.308.788-.052 1.115-.305.3-.803.3-1.108 0l-1.497-1.464c-.138-.137-.166-.331-.138-.495l-.33-.323c-.082.109-.252.109-.362 0l-.113-.11a.262.262 0 0 1 0-.384l.216-.204-2.535-2.496-.415.06-.641-1.09.363-.358Zm4.5 4.65c-.034 0-.076.007-.103.034a.136.136 0 0 0 0 .196l1.635 1.61a.142.142 0 0 0 .2 0 .136.136 0 0 0 0-.196l-1.636-1.61a.125.125 0 0 0-.095-.034Zm.9-4.641c-.546-.045-1.27.311-1.61.621-.416.41-.348.947-.017 1.465l-.588.58.416.46a.59.59 0 0 1 .77 0l.112.11.026.025.242-.238c.501.29 1.022.331 1.42-.06.387-.354.808-1.228.614-1.745l-.779.791a.273.273 0 0 1-.39 0l-.804-.791a.263.263 0 0 1 0-.384l.805-.792a.866.866 0 0 0-.216-.042ZM8.618 6.262l-1.004.988a1.48 1.48 0 0 0-.328-.035c-.776 0-1.385.6-1.385 1.363s.61 1.363 1.385 1.363 1.384-.6 1.384-1.363c0-.14-.022-.274-.06-.4l.588-.58-.086-.11a.55.55 0 0 1-.026-.767l-.468-.46ZM7.475 7.87l.528.52-.19.706-.719.188-.528-.52.19-.707.72-.187Z" fill="#FFF" fill-rule="nonzero"/>
  </g>
</svg>
