<svg width="40" height="40" xmlns="http://www.w3.org/2000/svg">
  <g fill="none" fill-rule="evenodd">
    <path d="M0 0h40v40H0z"/>
    <path d="M20.078 0C11.751 0 5 6.75 5 15.078c0 2.785.545 5.661 2.11 7.735L20.077 40l12.969-17.188c1.42-1.883 2.11-5.211 2.11-7.734C35.156 6.751 28.405 0 20.077 0Z" fill="#000" fill-rule="nonzero"/>
    <path d="M9.444 4.67h20v21.017h-20z"/>
    <path d="m12.252 6.772 2.461 1.495-.134.97 5.635 5.918.403-.424a.586.586 0 0 1 .433-.194c.163 0 .32.07.433.194l.23.241c.185.195.185.59 0 .85l.808.766c.37-.129.808 0 1.116.323l3.308 3.495c.677.711.684 1.87-.116 2.646a1.687 1.687 0 0 1-2.461 0l-3.327-3.474c-.308-.323-.37-.784-.308-1.172l-.731-.767c-.185.259-.561.259-.807 0l-.25-.263a.651.651 0 0 1 0-.909l.48-.484-5.634-5.919-.923.142-1.424-2.585.808-.849Zm10 11.029c-.076 0-.169.016-.23.08a.338.338 0 0 0 0 .465l3.634 3.817c.123.13.32.13.443 0a.338.338 0 0 0 0-.464l-3.635-3.817a.268.268 0 0 0-.212-.081Zm2-11.009c-1.214-.106-2.824.74-3.577 1.474-.927.974-.775 2.247-.039 3.475l-1.307 1.374.923 1.09a1.248 1.248 0 0 1 1.711 0l.25.263.059.06.538-.565c1.113.687 2.27.786 3.154-.142.861-.84 1.796-2.912 1.365-4.14l-1.73 1.878a.58.58 0 0 1-.866 0l-1.789-1.878a.645.645 0 0 1-.184-.455c0-.171.066-.335.184-.454l1.79-1.878a1.818 1.818 0 0 0-.482-.102Zm-6.769 8.06-2.231 2.343a3.088 3.088 0 0 0-.73-.081c-1.724 0-3.078 1.422-3.078 3.232 0 1.81 1.354 3.231 3.077 3.231 1.723 0 3.077-1.422 3.077-3.231 0-.332-.05-.65-.134-.95l1.307-1.373-.192-.263a1.368 1.368 0 0 1-.058-1.818l-1.038-1.09Zm-2.538 3.816 1.173 1.233-.424 1.676-1.595.445-1.174-1.233.423-1.676 1.597-.445Z" fill="#FFF" fill-rule="nonzero"/>
  </g>
</svg>
