<svg width="40" height="40" xmlns="http://www.w3.org/2000/svg">
  <g fill="none" fill-rule="evenodd">
    <path d="M0 0h40v40H0z"/>
    <path d="M16.667 5h-3.334v3.23l3.334 3.437V5Zm9.949 10.274v6.644L29.662 25l.338-.342v-9.384c0-1.884-1.523-3.425-3.384-3.425V5h-3.384v6.85h-6.565l3.384 3.424h6.565ZM7.33 6.667 5 8.997l5.438 5.438v9.852l5.785 5.785v4.958h8.265v-4.958l.793-.794 7.388 7.389L35 34.337 7.33 6.666Zm14.081 22.116v2.884h-1.795v-2.884l-6.284-5.548v-4.902l10 8.779-1.92 1.67Z" fill="#000" fill-rule="nonzero"/>
  </g>
</svg>
