<svg width="40" height="40" xmlns="http://www.w3.org/2000/svg">
  <g fill="none" fill-rule="evenodd">
    <path d="M0 0h40v40H0z"/>
    <path d="M33.258 11.117A18.75 18.75 0 0 0 1.25 24.375v6.875H12.5v-2.5H3.75v-4.375c0-8.96 7.29-16.25 16.25-16.25s16.25 7.29 16.25 16.25v4.375H27.5v2.5h11.25v-6.875a18.628 18.628 0 0 0-5.492-13.258Z" fill="#000" fill-rule="nonzero"/>
    <path fill="#000" fill-rule="nonzero" d="M6.25 20.625h2.5v2.5h-2.5zM18.75 10h2.5v2.5h-2.5zM10.625 13.125h2.5v2.5h-2.5zM31.25 20.625h2.5v2.5h-2.5zM23.22 26.18l5.407-11.264-2.254-1.082-5.405 11.26a5.011 5.011 0 1 0 2.252 1.086ZM20 32.5a2.5 2.5 0 1 1 0-5 2.5 2.5 0 0 1 0 5Z"/>
  </g>
</svg>
