<svg width="40" height="40" xmlns="http://www.w3.org/2000/svg">
  <g fill="none" fill-rule="evenodd">
    <path d="M0 0h40v40H0z"/>
    <path d="M11.39 1.188a.5.5 0 0 1 .11.312v5.778A5 5 0 0 1 16 4.46l6.702-.001a12.03 12.03 0 0 0-7.813 7H12v6h2.088c.182 1.501.64 2.916 1.324 4.193a.994.994 0 0 0-.412.808v7a1 1 0 0 0 1 1h8a1 1 0 0 0 1-1v-1.501a11.953 11.953 0 0 0 8.84-2.875c.104.272.16.567.16.876v5.5h2v4h-4v2a1 1 0 0 1-1 1h-3a1 1 0 0 1-1-1v-2H13v2a1 1 0 0 1-1 1H9a1 1 0 0 1-1-1v-2H4v-4h2v-5.5a2.5 2.5 0 0 1 2.5-2.5l.5-.001V2.7a.5.5 0 0 1 .188-.39l1.5-1.2a.5.5 0 0 1 .702.078ZM12 28.46h-2a1 1 0 1 0 0 2h2a1 1 0 0 0 0-2Zm18 0h-2a1 1 0 1 0 0 2h2a1 1 0 0 0 0-2Zm-6.5 0a.5.5 0 1 1 0 1h-7a.5.5 0 1 1 0-1h7Zm-3.387-2c.729.41 1.505.747 2.317 1H16.5a.5.5 0 1 1 0-1h3.613ZM26 6c5.523 0 10 4.477 10 10-.007 5.52-4.48 9.993-10 10-5.523 0-10-4.477-10-10S20.477 6 26 6Zm-9.5 18.46h.99c.354.356.73.69 1.126 1H16.5a.5.5 0 1 1 0-1ZM26 8.5a7.5 7.5 0 1 0 7.5 7.5A7.509 7.509 0 0 0 26 8.5Zm-9.94 14.224c.171.253.351.498.54.736h-.1a.5.5 0 0 1-.44-.736ZM27.25 11v4.482l2.5 2.5-1.767 1.768-3.233-3.233V11h2.5Zm2.062-9.89 1.5 1.2A.5.5 0 0 1 31 2.7l.001 2.389a11.91 11.91 0 0 0-2.5-.828L28.5 1.5a.5.5 0 0 1 .812-.39Z" fill="#000000"/>
  </g>
</svg>
