<svg width="24" height="24" xmlns="http://www.w3.org/2000/svg">
  <g fill="none" fill-rule="evenodd">
    <path d="M0 0h24v24H0z"/>
    <path d="M6.834.713A.3.3 0 0 1 6.9.9v3.465a3 3 0 0 1 2.7-1.69h4.024a7.218 7.218 0 0 0-4.69 4.2H7.2v3.6h1.253c.109.9.384 1.75.794 2.515a.6.6 0 0 0-.247.486v4.2a.6.6 0 0 0 .6.6h4.8a.6.6 0 0 0 .6-.6v-.9a7.172 7.172 0 0 0 5.304-1.725c.063.163.096.34.096.525v3.3h1.2v2.4h-2.4v1.2a.6.6 0 0 1-.6.6h-1.8a.6.6 0 0 1-.6-.6v-1.2H7.8v1.2a.6.6 0 0 1-.6.6H5.4a.6.6 0 0 1-.6-.6v-1.2H2.4v-2.4h1.2v-3.3a1.5 1.5 0 0 1 1.5-1.5l.3-.001V1.62a.3.3 0 0 1 .113-.234l.9-.72a.3.3 0 0 1 .421.047ZM7.2 17.076H6a.6.6 0 1 0 0 1.2h1.2a.6.6 0 0 0 0-1.2Zm10.8 0h-1.2a.6.6 0 1 0 0 1.2H18a.6.6 0 0 0 0-1.2Zm-3.9 0a.3.3 0 0 1 0 .6H9.9a.3.3 0 0 1 0-.6h4.2Zm-4.2-1.2h2.17c.436.246.9.448 1.387.6H9.9a.3.3 0 0 1 0-.6ZM15.6 3.6a6 6 0 0 1 6 6 6.008 6.008 0 0 1-6 6 6 6 0 1 1 0-12ZM9.9 14.676h.594c.212.214.438.414.676.6H9.9a.3.3 0 0 1 0-.6ZM15.6 5.1a4.5 4.5 0 1 0 0 9 4.5 4.5 0 0 0 0-9Zm.75 1.5v2.69l1.5 1.5-1.06 1.06-1.94-1.94V6.6h1.5ZM17.587.666l.9.72a.3.3 0 0 1 .113.234v1.433a7.146 7.146 0 0 0-1.5-.497V.9a.3.3 0 0 1 .487-.234Z" fill="#000000"/>
  </g>
</svg>
