<svg xmlns="http://www.w3.org/2000/svg" viewBox="0 0 24 24">
  <g fill="none" fill-rule="evenodd">
    <path d="M0 0h24v24H0z"/>
    <path d="M5.49 2.333C5.49 2.041 8.506 0 11.501 0s6.012 2.042 6.012 2.333c0 1.04-.111 1.656-.205 1.991-.062.22-.268.342-.497.342H6.192c-.23 0-.436-.122-.498-.342-.093-.335-.204-.951-.204-1.991ZM10.5 2a.667.667 0 1 0 0 1.333h2.003a.667.667 0 1 0 0-1.333H10.5ZM6.182 8.81C3.96 8.125 4.52 6.899 5.368 6H17.82c.679.864 1.043 2.032-1.009 2.73a5.329 5.329 0 0 1-2.444 5.098 5.353 5.353 0 0 1-5.663.043 5.33 5.33 0 0 1-2.52-5.06Zm5.137.522c1.764 0 3.132-.093 4.18-.256a3.997 3.997 0 0 1-1.91 3.665 4.015 4.015 0 0 1-4.139.024A3.997 3.997 0 0 1 7.5 9.122c.977.135 2.23.21 3.82.21Zm5.803 9.732a6.677 6.677 0 0 0-5.622-3.066 6.677 6.677 0 0 0-5.624 3.067 1.663 1.663 0 0 0-.966-.7l-1.29-.344a1.67 1.67 0 0 0-2.046 1.178l-.518 1.931a1.663 1.663 0 0 0 1.18 2.041l1.29.346c.439.118.907.052 1.295-.183a.667.667 0 0 0 1.336-.004v-.666c0-.254.018-.504.052-.75l3.476.93a2.004 2.004 0 0 0 3.63 0l3.477-.93c.034.246.052.496.052.75v.666a.666.666 0 0 0 .999.582.666.666 0 0 0 .337-.575c.374.224.836.302 1.29.18l1.291-.345a1.67 1.67 0 0 0 1.181-2.04l-.519-1.933a1.67 1.67 0 0 0-2.045-1.178l-1.29.345c-.398.106-.741.354-.966.697v.001ZM6.561 20.628a5.347 5.347 0 0 1 4.272-3.256v2.74a2.006 2.006 0 0 0-1.255 1.324l-3.017-.807Zm9.881 0a5.348 5.348 0 0 0-4.273-3.256v2.74a2.006 2.006 0 0 1 1.256 1.324l3.017-.807Zm-4.94 2.036a.667.667 0 1 0 0-1.335.667.667 0 0 0 0 1.335Z" fill="#000000"/>
  </g>
</svg>
