<svg xmlns="http://www.w3.org/2000/svg" viewBox="0 0 40 40">
  <g fill="none" fill-rule="evenodd">
    <circle stroke="#075895" stroke-width="2" fill="#075895" cx="20" cy="20" r="19"/>
    <path d="M6 4h30v30H6z"/>
    <path d="M30.875 7.75c-.75-1.25-2.25-1.625-3.375-.875L14.625 14.25c-.375-.125-.75-.25-1.125-.25-2.125 0-3.75 1.625-3.75 3.75V29c-.75 0-1.25.5-1.25 1.25v1.25h10v-1.25c0-.75-.5-1.25-1.25-1.25V18.5l12.625-7.25c1.25-.75 1.625-2.25 1-3.5M13.5 19.625c-1 0-1.875-.875-1.875-1.875s.875-1.875 1.875-1.875 1.875.875 1.875 1.875-.875 1.875-1.875 1.875M19 16l-2.875-1.25 1.625-1L20.625 15 19 16m4.375-2.5L20.5 12.25l1.625-1L25 12.5l-1.625 1m4.25-2.5L24.75 9.75l1.625-1L29.25 10l-1.625 1M31 26.5h-2.5V29H31v-2.5m0-10h-2.5V24H31v-7.5Z" fill="#FFFFFF" fill-rule="nonzero"/>
  </g>
</svg>
