<svg xmlns="http://www.w3.org/2000/svg" viewBox="0 0 24 24">
  <g fill="none" fill-rule="evenodd">
    <path d="M0 0h24v24H0z"/>
    <path d="m17.85.876.562.45a.5.5 0 0 1 .188.39v12.459a2.501 2.501 0 0 1 1.8 2.4v2.3h1.2v2.4h-2.4v.8a1 1 0 0 1-1 1h-1a1 1 0 0 1-1-1v-.8H7.8v.8a1 1 0 0 1-1 1h-1a1 1 0 0 1-1-1v-.8H2.4v-2.4h1.2v-2.3c0-1.137.76-2.097 1.8-2.4V1.716a.5.5 0 0 1 .188-.39l.562-.45a.462.462 0 0 1 .75.36v4.73a5.002 5.002 0 0 1 4.7-3.29h.8c2.16 0 4.002 1.37 4.7 3.29v-4.73a.462.462 0 0 1 .75-.36Zm-3.85 12h-4a1 1 0 0 0-1 1v3.4a1 1 0 0 0 1 1h4a1 1 0 0 0 1-1v-3.4a1 1 0 0 0-1-1Zm-6.8 4.2H6a.6.6 0 1 0 0 1.2h1.2a.6.6 0 0 0 0-1.2Zm10.8 0h-1.2a.6.6 0 1 0 0 1.2H18a.6.6 0 0 0 0-1.2Zm-3.9 0a.3.3 0 0 1 0 .6H9.9a.3.3 0 0 1 0-.6Zm0-1.2a.3.3 0 0 1 0 .6H9.9a.3.3 0 0 1 0-.6Zm0-1.2a.3.3 0 0 1 0 .6H9.9a.3.3 0 0 1 0-.6Zm0-1.2a.3.3 0 0 1 0 .6H9.9a.3.3 0 0 1 0-.6Zm2.7-6.6H7.2v3.6h9.6v-3.6Z" fill="#000000"/>
  </g>
</svg>
