<svg xmlns="http://www.w3.org/2000/svg" viewBox="0 0 24 24">
  <g fill="none" fill-rule="evenodd">
    <path d="M0 0h24v24H0z"/>
    <g fill="#000000">
      <path d="M0 7v6.897h24V7H0Z" fill-rule="nonzero"/>
      <path d="M19.059 14.241c.78 0 1.412.618 1.412 1.38 0 .761-.632 1.379-1.412 1.379-.78 0-1.412-.618-1.412-1.38 0-.761.632-1.379 1.412-1.379Zm0 .575a.814.814 0 0 0-.824.805c0 .444.369.804.824.804.455 0 .823-.36.823-.804a.814.814 0 0 0-.823-.805ZM22.588 14.241c.78 0 1.412.618 1.412 1.38 0 .761-.632 1.379-1.412 1.379-.78 0-1.412-.618-1.412-1.38 0-.761.633-1.379 1.412-1.379Zm0 .575a.814.814 0 0 0-.823.805c0 .444.368.804.823.804.455 0 .824-.36.824-.804a.814.814 0 0 0-.824-.805ZM3.882 14.241h1v2.76h-1z"/>
      <path d="M3.176 17h2.118v-1H3.176z"/>
    </g>
  </g>
</svg>
